<svg width="78" height="84" viewBox="0 0 78 84" fill="none" xmlns="http://www.w3.org/2000/svg">
<path fill-rule="evenodd" clip-rule="evenodd" d="M16.1265 10.3656C17.7596 11.6381 18.2504 13.9663 17.1909 15.8217C16.1297 17.6771 13.8905 18.4127 11.9811 17.6197L16.1265 10.3656ZM10.9346 0H67.0654C70.0716 0 72.8032 1.24295 74.7857 3.24447C76.7699 5.246 78 8.00938 78 11.047V72.953C78 75.9906 76.7699 78.754 74.789 80.7555L74.7289 80.813C72.7512 82.78 70.0424 84 67.0654 84H10.9346C7.92837 84 5.19675 82.757 3.21425 80.7555C1.23013 78.754 0 75.9906 0 72.953V11.047C0 8.00938 1.23013 5.246 3.211 3.24447L3.27112 3.18701C5.24875 1.21996 7.95762 0 10.9346 0ZM67.0654 2.1805H10.9346C8.54425 2.1805 6.36837 3.15745 4.78237 4.73535L4.73687 4.78625C3.146 6.39207 2.158 8.60869 2.158 11.047V72.953C2.158 75.3913 3.146 77.6079 4.73687 79.2154C6.3245 80.8212 8.51987 81.8195 10.9346 81.8195H67.0654C69.4557 81.8195 71.6316 80.8426 73.2176 79.2646L73.2631 79.2154C74.854 77.6079 75.842 75.3913 75.842 72.953V11.047C75.842 8.60869 74.854 6.39207 73.2631 4.78625C71.6755 3.1788 69.4801 2.1805 67.0654 2.1805ZM38.0477 54.2481C38.0477 53.9646 38.1592 53.6927 38.3576 53.4922C38.556 53.2918 38.8251 53.1791 39.1056 53.1791C39.3862 53.1791 39.6553 53.2918 39.8537 53.4922C40.052 53.6927 40.1635 53.9646 40.1635 54.2481V59.2034C40.1635 59.7929 39.689 60.2723 39.1056 60.2723C38.5222 60.2723 38.0477 59.7929 38.0477 59.2034V54.2481ZM39.1056 29.0705C40.6819 29.0705 41.9607 30.3628 41.9607 31.9554C41.9607 33.5481 40.6819 34.8387 39.1056 34.8387C37.5294 34.8387 36.2505 33.5481 36.2505 31.9554C36.2505 30.3628 37.5294 29.0705 39.1056 29.0705ZM28.5187 18.7871H49.4812C50.6171 18.7871 51.5466 19.7328 51.5466 20.874V63.1244C51.5466 64.2672 50.6106 65.2129 49.4812 65.2129H28.5187C27.3894 65.2129 26.4534 64.2737 26.4534 63.1244V20.874C26.4534 19.7263 27.3829 18.7871 28.5187 18.7871ZM30.4752 25.3056H47.7344C48.8719 25.3056 49.8014 26.271 49.8014 27.3941V60.8798C49.8014 62.0029 48.8442 62.9684 47.7344 62.9684H30.4752C29.3654 62.9684 28.4099 62.0276 28.4099 60.8798V27.3941C28.4099 26.2448 29.3394 25.3056 30.4752 25.3056ZM66.989 66.9485C68.6237 68.221 69.1129 70.5492 68.0534 72.4046C66.9922 74.26 64.753 74.9956 62.8452 74.2026L66.989 66.9485ZM61.8719 73.6344C60.2387 72.3619 59.7496 70.0337 60.8091 68.1783C61.8686 66.3229 64.1095 65.5889 66.0173 66.382L61.8719 73.6344ZM11.011 17.0515C9.37625 15.779 8.8855 13.4508 9.94662 11.5954C11.0061 9.73999 13.247 9.0044 15.1547 9.79745L11.011 17.0515Z" fill="white"/>
</svg>
