<svg width="90" height="90" viewBox="0 0 90 90" fill="none" xmlns="http://www.w3.org/2000/svg">
<path d="M19.4289 51.6841C19.1216 51.9303 18.7536 52.05 18.3882 52.05C17.9003 52.05 17.4167 51.8369 17.0878 51.4263L16.859 51.1409C16.613 50.8339 16.4933 50.4667 16.493 50.1015C16.4928 49.6132 16.7062 49.1292 17.1169 48.7998C17.8345 48.2251 18.8826 48.34 19.458 49.0576L19.6868 49.343C19.9329 49.65 20.0526 50.0172 20.053 50.3824C20.053 50.8707 19.8394 51.3547 19.4289 51.6841ZM24.1637 60.2563C24.4927 60.6675 24.9767 60.8813 25.465 60.8813C25.8299 60.8813 26.1976 60.762 26.5046 60.5161C26.9156 60.1874 27.1294 59.7034 27.1296 59.2151C27.1296 58.8502 27.0103 58.4825 26.7644 58.1755L26.5361 57.8901C25.9613 57.1719 24.9132 57.0555 24.1952 57.6303C23.7842 57.959 23.5705 58.443 23.5702 58.9313C23.5702 59.2963 23.6895 59.6639 23.9354 59.9709L24.1637 60.2563ZM23.4988 52.4886C23.8646 52.4886 24.2331 52.3687 24.5405 52.1218C24.951 51.7923 25.164 51.3081 25.1634 50.8197C25.1628 50.4546 25.0429 50.0872 24.7964 49.7805L24.5674 49.4953C23.9916 48.7782 22.9432 48.6637 22.2261 49.2395C21.817 49.568 21.6041 50.0501 21.6032 50.5366C21.6028 50.9032 21.7227 51.2725 21.97 51.5808L22.199 51.866C22.5281 52.2757 23.0113 52.4886 23.4988 52.4886ZM19.278 57.0189C19.6069 57.429 20.0902 57.6421 20.578 57.6421C20.9435 57.6421 21.3116 57.5224 21.6191 57.2757C22.0296 56.9464 22.2429 56.4622 22.2425 55.9738C22.2421 55.6089 22.1222 55.2413 21.8761 54.9347L21.6474 54.6495C21.0718 53.9323 20.0236 53.8172 19.3063 54.3926C18.8958 54.7219 18.6824 55.2061 18.6828 55.6945C18.6832 56.0594 18.8031 56.427 19.0492 56.7337L19.278 57.0189ZM1.43726 39.4259C-0.823277 36.6047 -0.367382 32.4705 2.45355 30.2097C3.84934 29.091 5.59069 28.6166 7.28354 28.8066C7.46694 27.1138 8.3092 25.5171 9.70478 24.3984C12.5259 22.1377 16.6604 22.5931 18.9212 25.4145C20.8222 27.7868 20.8022 31.0876 19.0706 33.4222L22.0088 37.0883L23.3292 36.0302C23.6929 35.739 24.1619 35.6132 24.6219 35.6834C25.2708 35.7825 25.9288 35.9255 26.5781 36.1091C27.4633 36.3589 27.9781 37.2792 27.7281 38.1644C27.478 39.0493 26.5579 39.5652 25.6726 39.3141C25.389 39.2342 25.1043 39.1636 24.8199 39.1036L13.5129 48.1649C13.4929 50.011 13.8736 51.9576 14.6268 53.8393C14.9686 54.6932 14.5533 55.6624 13.6994 56.004C13.4964 56.0854 13.287 56.1237 13.0811 56.1237C12.4204 56.1237 11.795 55.7278 11.5344 55.0768C10.499 52.4897 10.0435 49.7751 10.2177 47.2265C10.2494 46.7618 10.4744 46.3316 10.8379 46.0403L12.1581 44.9824L9.21995 41.3161C6.56389 42.4977 3.33828 41.7976 1.43726 39.4259ZM8.57067 37.8425C8.87793 37.5963 9.24576 37.4768 9.61111 37.4768C10.0991 37.4768 10.5826 37.6902 10.9118 38.1007L14.7575 42.8994L19.4099 39.1711L15.5642 34.3725C15.2879 34.028 15.1601 33.5875 15.2084 33.1485C15.2567 32.7097 15.4776 32.3077 15.8223 32.0316C17.2102 30.9192 17.4346 28.8851 16.3221 27.4972C15.2099 26.1096 13.1758 25.8848 11.788 26.9974C10.6982 27.8707 10.2939 29.3356 10.7823 30.6427C11.034 31.3162 10.825 32.0754 10.2637 32.525C9.7027 32.9749 8.91623 33.0138 8.31357 32.6212C7.14427 31.8605 5.6265 31.9355 4.53651 32.8087C3.14863 33.921 2.92422 35.955 4.03628 37.3429C5.14874 38.7306 7.18279 38.9552 8.57067 37.8425ZM35.8157 40.676V43.5585C35.8157 44.4782 36.5614 45.2239 37.4811 45.2239C38.4008 45.2239 39.1465 44.4782 39.1465 43.5585V40.676C39.1465 39.7563 38.4008 39.0106 37.4811 39.0106C36.5614 39.0106 35.8157 39.7563 35.8157 40.676ZM54.5147 41.8401C53.3004 40.906 52.0264 40.4218 50.7279 40.4003C50.7096 40.3997 50.6912 40.3997 50.6733 40.4003C48.4682 40.4366 46.274 41.8625 44.4952 44.416C41.8111 48.2686 40.0204 54.8102 41.7913 59.8581C42.0317 60.5436 42.6752 60.9727 43.3628 60.9727C43.5455 60.9727 43.7316 60.9423 43.914 60.8784C44.7819 60.574 45.2388 59.6237 44.9343 58.7556C43.599 54.9494 45.0521 49.4439 47.2283 46.3201C48.3526 44.7062 49.6167 43.7646 50.701 43.7315C51.2604 43.7484 51.8601 44 52.484 44.4803C53.2128 45.0411 54.2587 44.9045 54.8195 44.1757C55.3801 43.4465 55.2437 42.4011 54.5147 41.8401ZM66.1638 59.2879C67.0883 59.3075 67.8464 58.5822 67.8683 57.6625C67.9846 52.7874 66.3545 47.2746 62.45 45.9483C62.4327 45.9425 62.4152 45.9369 62.398 45.9317C60.6537 45.4027 58.6444 45.766 56.5889 46.9831C52.7315 49.2674 49.2307 54.2654 48.2646 58.8674C48.0758 59.7676 48.6522 60.6504 49.5523 60.8394C49.6677 60.8636 49.7828 60.8754 49.896 60.8754C50.6673 60.8754 51.3595 60.3365 51.5243 59.5519C52.3031 55.8421 55.21 51.6709 58.2859 49.8492C59.4856 49.1387 60.5917 48.8771 61.4044 49.1115C63.2923 49.7814 64.6381 53.4133 64.5386 57.5836C64.5167 58.5027 65.2443 59.2659 66.1638 59.2879ZM16.5259 20.4334C16.7601 20.547 17.0076 20.6009 17.2516 20.6009C17.8695 20.6009 18.4632 20.2556 18.7511 19.6621C18.8194 19.5214 19.6443 17.4055 19.7157 17.2421C23.6204 9.76229 31.1006 4.80427 40.2433 3.63747C49.774 2.42196 59.332 5.70087 65.1879 12.1966C65.8036 12.8797 66.857 12.9342 67.5398 12.3186C68.223 11.7027 68.2775 10.6495 67.6616 9.96651C64.3183 6.25794 59.9018 3.41993 54.8894 1.75935C50.1154 0.177665 44.9053 -0.314869 39.8216 0.333377C29.5687 1.64194 21.1582 7.25487 16.7462 15.7335C16.6623 15.8948 15.7967 18.1091 15.7451 18.2284C15.3587 19.0519 15.7051 20.0351 16.5259 20.4334ZM51.1373 34.8596C51.77 35.5275 51.7412 36.5814 51.0734 37.2141C50.4056 37.8465 49.3517 37.8178 48.719 37.1499C48.1245 36.5223 47.368 36.1012 46.5316 35.9324C45.7544 35.7756 45.1957 35.0928 45.1957 34.2999V32.143H37.8616V34.2999C37.8616 35.0928 37.3027 35.7756 36.5258 35.9324C34.6002 36.3208 33.203 38.0261 33.203 39.9869V58.8006C33.203 59.7203 32.4573 60.466 31.5376 60.466C30.6179 60.466 29.8722 59.7203 29.8722 58.8006V39.9869C29.8722 36.9191 31.7653 34.1981 34.5311 33.0704V31.2487C33.7382 30.5678 33.2348 29.5584 33.2348 28.4338V26.2378C33.2348 24.1927 34.8987 22.5288 36.944 22.5288H46.1138C48.159 22.5288 49.8227 24.1927 49.8227 26.2378V28.4338C49.8227 29.5586 49.3196 30.568 48.5265 31.2487V33.0696C49.5069 33.4686 50.3938 34.0744 51.1373 34.8596ZM46.4922 26.2378C46.4922 26.0328 46.319 25.8596 46.114 25.8596H36.9442C36.739 25.8596 36.5658 26.0328 36.5658 26.2378V28.4338C36.5658 28.5889 36.6651 28.7259 36.802 28.7835C36.8068 28.7854 36.8116 28.7875 36.8164 28.7892C36.8566 28.8041 36.8997 28.8123 36.9442 28.8123H46.114C46.1575 28.8123 46.1997 28.8046 46.2391 28.7902C46.2457 28.7875 46.2522 28.785 46.2588 28.7825C46.3944 28.7244 46.4924 28.5879 46.4924 28.4338V26.2378H46.4922ZM82.4128 59.8342C82.327 63.57 79.9037 68.37 75.7642 73.0031C71.7357 77.5119 66.552 81.3897 61.074 84.007V88.2787C61.074 89.1984 60.3283 89.9441 59.4086 89.9441H28.9908C28.0711 89.9441 27.3255 89.1984 27.3255 88.2787V84.007C21.8474 81.3897 16.6635 77.5119 12.6352 73.0031C8.49551 68.37 6.07219 63.5702 5.98643 59.8342C5.97165 59.1841 6.33636 58.5847 6.9207 58.2993C7.50524 58.0141 8.2022 58.0951 8.70556 58.5067C9.42875 59.0983 12.1192 60.595 21.4571 61.7173C27.7872 62.478 35.864 62.897 44.1998 62.897C52.5356 62.897 60.6125 62.478 66.9423 61.7173C76.2801 60.595 78.9705 59.0983 79.6937 58.5069C80.197 58.0953 80.8942 58.0143 81.4785 58.2993C82.0629 58.5847 82.4276 59.1841 82.4128 59.8342ZM57.743 84.608H30.6562V86.6133H57.743V84.608ZM78.4338 62.8002C69.1785 66.041 48.734 66.2277 44.1996 66.2277C39.6652 66.2277 19.2207 66.0412 9.96521 62.8002C10.5044 64.262 11.3656 65.8505 12.498 67.4799C12.5272 67.5115 12.5553 67.5446 12.5825 67.5792C12.8246 67.8867 13.3411 68.4021 14.0812 68.4021C14.7398 68.4021 15.3658 67.9864 15.7986 67.2615C16.2701 66.4717 17.2922 66.2142 18.0822 66.6851C18.8718 67.1566 19.13 68.1791 18.6584 68.9687C17.9448 70.1641 16.9081 71.0267 15.7311 71.446C16.945 72.7414 18.3029 74.0196 19.7807 75.2395C20.3009 74.6477 21.1846 74.4921 21.8849 74.9108C22.6745 75.3825 22.9322 76.405 22.4605 77.1946C22.4474 77.2167 22.434 77.2388 22.4205 77.2606C24.5618 78.779 26.8914 80.1511 29.3501 81.2773H59.0491C61.3563 80.2204 63.5498 78.9474 65.5805 77.5398C65.5039 77.428 65.4302 77.3129 65.3594 77.1948C64.8875 76.4052 65.145 75.3827 65.9346 74.9108C66.724 74.4389 67.7467 74.6966 68.2184 75.486C68.229 75.5041 68.2401 75.5218 68.2511 75.5395C69.8792 74.224 71.3685 72.8349 72.6866 71.426C71.5327 70.9997 70.5173 70.1455 69.8147 68.9689C69.3432 68.1794 69.6011 67.1568 70.3907 66.6853C71.1805 66.2136 72.203 66.4717 72.6743 67.2613C73.1073 67.9862 73.7331 68.4021 74.3915 68.4021C74.9355 68.4021 75.3562 68.1227 75.6258 67.8694C76.8944 66.1041 77.8518 64.3781 78.4338 62.8002ZM80.2108 23.7793C79.4189 23.3113 78.3976 23.574 77.9298 24.3659L77.7183 24.7236C77.5612 24.9896 77.4864 25.2817 77.4864 25.5696C77.4866 26.1391 77.7791 26.6937 78.305 27.0047C78.5708 27.1619 78.8626 27.2364 79.1506 27.2364C79.7203 27.2364 80.2751 26.9441 80.5859 26.4181L80.7974 26.0602C80.9546 25.7942 81.0293 25.5021 81.0293 25.2142C81.0289 24.6447 80.7366 24.0901 80.2108 23.7793ZM75.6429 27.0155C74.8499 26.5497 73.8293 26.8147 73.3632 27.6076L73.1527 27.9656C72.997 28.2304 72.9229 28.5206 72.9229 28.8073C72.9227 29.3785 73.2166 29.9349 73.7448 30.2453C74.0098 30.401 74.3004 30.4751 74.587 30.4751C75.158 30.4751 75.7143 30.1812 76.0244 29.6535L76.2349 29.2954C76.3906 29.0306 76.4647 28.7404 76.4647 28.4538C76.4649 27.8824 76.1708 27.3259 75.6429 27.0155ZM76.2699 21.4561C75.4778 20.9881 74.4567 21.2515 73.9889 22.0434L73.7779 22.401C73.6209 22.667 73.5462 22.9591 73.5464 23.247C73.5468 23.8166 73.8395 24.3711 74.3653 24.6817C74.6311 24.8387 74.9226 24.9132 75.2105 24.9132C75.7803 24.9132 76.3354 24.6205 76.646 24.0943L76.8571 23.7366C77.0141 23.4706 77.0888 23.1785 77.0886 22.8906C77.0884 22.3213 76.7957 21.7667 76.2699 21.4561ZM89.9172 27.9336C87.8989 34.0857 84.791 40.8002 80.9294 47.351C79.283 50.1436 77.5333 52.8494 75.7288 55.3937C75.4041 55.8514 74.8905 56.0958 74.3691 56.0958C74.0358 56.0958 73.6996 55.9961 73.4071 55.7886C72.6569 55.2565 72.4799 54.2169 73.0122 53.4668C74.7629 50.9985 76.4612 48.3716 78.0604 45.6596C81.2039 40.3269 83.828 34.8946 85.7398 29.779C85.2841 29.9474 84.8132 30.1431 84.3292 30.3646C84.2761 30.3927 84.2214 30.4179 84.1654 30.4402C79.554 32.5925 73.7587 37.0667 67.9994 43.0277C67.8331 43.5094 67.6628 43.9925 67.488 44.4786C67.1765 45.344 66.2233 45.7938 65.3571 45.4818C64.4917 45.1706 64.0425 44.2165 64.3537 43.3512C64.5602 42.777 64.7605 42.206 64.9547 41.6379C64.9628 41.6125 64.9716 41.5871 64.9807 41.5619C67.7985 33.3 69.3111 25.7113 69.257 20.3855C69.2524 20.3216 69.2516 20.2575 69.2543 20.1936C69.2524 20.0872 69.2499 19.9816 69.2468 19.8771C65.9504 23.9704 62.6963 28.7069 59.7165 33.7609C58.8226 35.277 57.9541 36.8215 57.1354 38.3513C56.7014 39.1623 55.6919 39.4677 54.8811 39.0335C54.0701 38.5994 53.7647 37.5902 54.1987 36.7794C55.0391 35.2094 55.9303 33.6248 56.8473 32.0693C60.6576 25.6062 64.9152 19.6361 69.1594 14.8048C69.5668 14.3414 70.1971 14.141 70.7971 14.2842C71.3972 14.4274 71.8689 14.8906 72.0232 15.488C72.1264 15.8879 72.2149 16.3095 72.2892 16.7521C77.1511 12.6371 81.14 11.3288 83.9248 12.9706C87.5076 15.0827 87.2316 20.8293 85.9892 26.2033C86.7424 25.9876 87.4616 25.8387 88.1429 25.7598C88.7067 25.6941 89.2658 25.921 89.6249 26.361C89.984 26.8011 90.0941 27.3938 89.9172 27.9336ZM82.2334 15.8401C80.9933 15.109 77.7367 16.0426 72.5796 20.9748C72.5384 25.2203 71.6743 30.5178 70.0624 36.387C74.3414 32.5104 78.4938 29.5432 82.1547 27.7287C84.161 20.6753 83.661 16.6819 82.2334 15.8401ZM80.6 18.6106C79.8073 18.1437 78.7867 18.4077 78.3197 19.2L78.1089 19.5578C77.9521 19.824 77.8776 20.1161 77.878 20.404C77.8788 20.9736 78.1721 21.5279 78.6982 21.8381C78.9636 21.9944 79.2546 22.0688 79.5419 22.0688C80.1123 22.0688 80.6679 21.7757 80.9783 21.2488L81.1892 20.8909C81.3459 20.6247 81.4204 20.3326 81.42 20.0447C81.4194 19.4752 81.1263 18.9208 80.6 18.6106ZM29.7076 70.2709C30.1791 69.4813 29.9211 68.4587 29.1315 67.9872C28.3422 67.5155 27.3194 67.7734 26.8479 68.5632C26.4149 69.2881 25.7891 69.7038 25.1305 69.7038C24.472 69.7038 23.8465 69.2881 23.4137 68.5632C22.9422 67.7736 21.9203 67.5157 21.1301 67.9868C20.3405 68.4583 20.0823 69.4808 20.5538 70.2704C21.587 72.001 23.298 73.0343 25.1305 73.0343C26.963 73.0345 28.674 72.0014 29.7076 70.2709ZM42.227 70.2711C42.6987 69.4815 42.4408 68.4589 41.6512 67.9872C40.8618 67.5159 39.8391 67.7734 39.3673 68.563C38.9341 69.2879 38.3084 69.7038 37.6499 69.7038C36.9915 69.7038 36.3657 69.2881 35.9327 68.5632C35.4612 67.7736 34.4389 67.5157 33.6491 67.9872C32.8595 68.4587 32.6016 69.4813 33.0731 70.2709C34.1066 72.0014 35.8176 73.0345 37.6499 73.0345C39.4822 73.0345 41.1932 72.0014 42.227 70.2711ZM62.6886 73.0345C64.5211 73.0345 66.2323 72.0014 67.2656 70.2709C67.7371 69.4813 67.4792 68.4587 66.6896 67.9872C65.9 67.5155 64.8777 67.7734 64.406 68.5632C63.973 69.2881 63.3472 69.7038 62.6886 69.7038C62.0301 69.7038 61.4044 69.2881 60.9714 68.5632C60.4996 67.7734 59.4773 67.5157 58.6877 67.9872C57.8981 68.4587 57.6402 69.4813 58.1117 70.2709C59.1453 72.0014 60.8562 73.0345 62.6886 73.0345ZM34.8979 74.9106C34.1083 74.4391 33.086 74.6968 32.6143 75.4864C32.181 76.2112 31.5551 76.6272 30.8966 76.6272C30.2384 76.6272 29.6126 76.2112 29.1792 75.4864C28.7075 74.6968 27.685 74.4389 26.8956 74.9106C26.106 75.3823 25.8483 76.4048 26.3198 77.1944C27.3536 78.925 29.0645 79.9579 30.8964 79.9579C32.7287 79.9579 34.4397 78.9247 35.4735 77.1944C35.9454 76.4046 35.6875 75.3821 34.8979 74.9106ZM42.1924 75.4864C41.7209 74.6968 40.6986 74.4389 39.9088 74.9104C39.1192 75.3819 38.8613 76.4044 39.3328 77.194C40.3663 78.9245 42.0773 79.9577 43.9096 79.9577C45.7424 79.9577 47.4533 78.9245 48.4867 77.194C48.9582 76.4042 48.7003 75.3819 47.9107 74.9102C47.1211 74.4393 46.0986 74.6968 45.627 75.4864C45.1943 76.2112 44.5683 76.6269 43.9096 76.6269C43.2512 76.6272 42.6252 76.2114 42.1924 75.4864ZM50.1691 73.0345C52.0017 73.0345 53.7128 72.0014 54.7464 70.2709C55.2179 69.4813 54.96 68.4587 54.1704 67.9872C53.3808 67.5155 52.3585 67.7734 51.8868 68.5632C51.4538 69.2881 50.8278 69.7038 50.1693 69.7038C49.5109 69.7038 48.8851 69.2881 48.4521 68.5632C47.9806 67.7736 46.9583 67.5157 46.1685 67.9872C45.3789 68.4587 45.121 69.4813 45.5925 70.2709C46.6259 72.0014 48.3366 73.0345 50.1691 73.0345ZM52.9216 74.9106C52.132 75.3821 51.8741 76.4046 52.3456 77.1942C53.3791 78.9247 55.0901 79.9579 56.9224 79.9579C58.7547 79.9579 60.4657 78.9247 61.4995 77.1944C61.9712 76.4048 61.7133 75.3823 60.9237 74.9106C60.1341 74.4391 59.1116 74.6968 58.64 75.4864C58.2068 76.2112 57.5809 76.6272 56.9224 76.6272C56.264 76.6272 55.6382 76.2114 55.2052 75.4866C54.7339 74.6968 53.7116 74.4389 52.9216 74.9106Z" fill="#D0D0D0"/>
</svg>
