<?xml version="1.0" encoding="utf-8"?>
<!-- Generator: Adobe Illustrator 23.0.4, SVG Export Plug-In . SVG Version: 6.00 Build 0)  -->
<svg version="1.1" id="Layer_1" xmlns="http://www.w3.org/2000/svg" xmlns:xlink="http://www.w3.org/1999/xlink" x="0px" y="0px"
	 viewBox="0 0 159.1 51.6" style="enable-background:new 0 0 159.1 51.6;" xml:space="preserve">
<style type="text/css">
	.st0{fill-rule:evenodd;clip-rule:evenodd;fill:#F7B207;}
</style>
<g>
	<rect class="st0" width="159.1" height="51.6"/>
	<g>
		<path d="M85.2,34.4c2.1,0,3.8-1.7,3.8-3.8l0,0V17.2h-3.8V30H69h0V17.2h-3.8v13.4h0c0,2.1,1.7,3.8,3.8,3.8v0L85.2,34.4L85.2,34.4z"
			/>
		<polygon points="96.2,27.5 107.3,34.4 114.2,34.4 100.8,25.7 112.9,17.2 106.2,17.2 96.3,23.5 96.2,23.5 96.2,17.2 92.4,17.2 
			92.4,34.4 96.2,34.4 96.2,27.5 		"/>
		<polygon points="116.4,17.2 138.4,17.2 138.4,20.9 120.2,20.9 120.2,23.9 138.4,23.9 138.4,27.6 120.2,27.6 120.2,30.6 
			138.4,30.6 138.4,34.4 116.4,34.4 		"/>
		<polygon points="44.4,17.2 48.1,17.2 48.1,30 63.1,30 63.1,34.4 44.4,34.4 		"/>
		<polygon points="20.7,34.4 24.5,34.4 24.5,27.1 41.5,27.1 41.5,23.3 24.5,23.3 24.5,21 41.5,21 41.5,17.2 20.7,17.2 		"/>
	</g>
</g>
</svg>
