<svg width="96" height="96" viewBox="0 0 96 96" fill="none" xmlns="http://www.w3.org/2000/svg">
<path d="M94.2188 57.5625V94.2188H65.5312V71.9062H52.7812V94.2188H1.78125V55.9688L17.7188 46.4062V59.1562L33.6562 46.4062V59.1562L49.5938 46.4062V59.1562L65.5312 46.4062V57.5625H94.2188Z" fill="#CBCBCB"/>
<path d="M84.6562 11.3438H75.0938L71.9062 57.5625H87.8438L84.6562 11.3438Z" fill="#ACABB1"/>
<path d="M65.5312 71.9062H52.7812V94.2188H65.5312V71.9062Z" fill="#57565C"/>
<path d="M17.7188 75.0938H11.3438V84.6562H17.7188V75.0938Z" fill="#ACABB1"/>
<path d="M30.4688 75.0938H24.0938V84.6562H30.4688V75.0938Z" fill="#ACABB1"/>
<path d="M43.2188 75.0938H36.8438V84.6562H43.2188V75.0938Z" fill="#ACABB1"/>
<path d="M94.2189 55.9688H89.3308L86.2453 11.2354C86.188 10.4003 85.4931 9.75 84.6548 9.75H75.0923C74.2556 9.75 73.5607 10.3987 73.5017 11.2354L70.4162 55.9688H67.1219V46.4062C67.1219 45.7927 66.7713 45.2364 66.2183 44.9703C65.6684 44.7041 65.0118 44.7774 64.5321 45.1615L51.1844 55.8397V46.4062C51.1844 45.7927 50.8338 45.2364 50.2808 44.9703C49.7293 44.7041 49.0743 44.7774 48.5946 45.1615L35.2469 55.8397V46.4062C35.2469 45.7927 34.8963 45.2364 34.3433 44.9703C33.7918 44.7041 33.1352 44.7774 32.6571 45.1615L19.3094 55.8397V46.4062C19.3094 45.8325 19.0003 45.3034 18.5014 45.0197C18.0042 44.736 17.3874 44.7456 16.8965 45.0404L0.959004 54.6029C0.479285 54.8914 0.186035 55.4093 0.186035 55.9688V94.2188C0.186035 95.1001 0.900035 95.8125 1.77979 95.8125H94.2173C95.097 95.8125 95.811 95.1001 95.811 94.2188V57.5625C95.811 56.6812 95.0986 55.9688 94.2189 55.9688ZM76.5824 12.9375H83.1694L86.137 55.9688H73.6149L76.5824 12.9375ZM54.3751 92.625V73.5H63.9376V92.625H54.3751ZM92.6251 92.625H67.1251V71.9062C67.1251 71.0249 66.4111 70.3125 65.5314 70.3125H52.7814C51.9016 70.3125 51.1876 71.0249 51.1876 71.9062V92.625H3.37513V56.8708L16.1251 49.2208V59.1547C16.1251 59.7682 16.4758 60.3245 17.0288 60.5906C17.5802 60.8568 18.2353 60.7819 18.715 60.3994L32.0626 49.7213V59.1547C32.0626 59.7682 32.4133 60.3245 32.9663 60.5906C33.5177 60.8568 34.1743 60.7819 34.6525 60.3994L48.0001 49.7213V59.1547C48.0001 59.7682 48.3508 60.3245 48.9038 60.5906C49.4536 60.8568 50.1103 60.7819 50.59 60.3994L63.9376 49.7213V57.5609C63.9376 58.4422 64.6516 59.1547 65.5314 59.1547H92.6251V92.625Z" fill="#231F20"/>
<path d="M54.364 3.375C54.678 3.41644 55.4812 4.16869 55.9131 4.5735C56.9092 5.50584 58.0376 6.5625 59.4799 6.5625C61.0163 6.5625 62.1957 5.45803 63.2348 4.48266C63.6508 4.09219 64.3473 3.44034 64.5768 3.375C64.9051 3.38934 65.7641 4.19419 66.2247 4.62609C67.2399 5.57916 68.2886 6.5625 69.6752 6.5625C71.3406 6.5625 72.6379 5.34328 73.6787 4.36631C74.0691 3.99975 74.6604 3.44353 74.7752 3.375C75.6326 3.375 75.8286 3.65869 76.353 4.41731C76.9443 5.27156 77.8368 6.5625 79.8736 6.5625C80.7533 6.5625 81.4673 5.85009 81.4673 4.96875C81.4673 4.08741 80.7533 3.375 79.8736 3.375C79.5596 3.375 79.4927 3.35269 78.9747 2.60522C78.3499 1.70156 77.3028 0.1875 74.7752 0.1875C73.4699 0.1875 72.4658 1.131 71.4952 2.04263C70.9645 2.53988 70.0768 3.375 69.7453 3.38297C69.4759 3.30647 68.805 2.67853 68.4033 2.30081C67.3467 1.31109 66.1498 0.1875 64.5752 0.1875C63.1535 0.1875 62.0379 1.233 61.053 2.15738C60.6115 2.57016 59.7907 3.33994 59.5182 3.37819C59.2281 3.31284 58.5157 2.64506 58.0902 2.24663C57.0606 1.28241 55.8908 0.1875 54.3736 0.1875C53.4938 0.1875 52.7734 0.899906 52.7734 1.78125C52.7734 2.66259 53.4827 3.375 54.364 3.375Z" fill="#231F20"/>
<path d="M17.7188 73.5H11.3438C10.464 73.5 9.75 74.2124 9.75 75.0938V84.6562C9.75 85.5376 10.464 86.25 11.3438 86.25H17.7188C18.5985 86.25 19.3125 85.5376 19.3125 84.6562V75.0938C19.3125 74.2124 18.5985 73.5 17.7188 73.5ZM16.125 83.0625H12.9375V76.6875H16.125V83.0625Z" fill="#231F20"/>
<path d="M30.4688 73.5H24.0938C23.214 73.5 22.5 74.2124 22.5 75.0938V84.6562C22.5 85.5376 23.214 86.25 24.0938 86.25H30.4688C31.3485 86.25 32.0625 85.5376 32.0625 84.6562V75.0938C32.0625 74.2124 31.3485 73.5 30.4688 73.5ZM28.875 83.0625H25.6875V76.6875H28.875V83.0625Z" fill="#231F20"/>
<path d="M43.2188 73.5H36.8438C35.964 73.5 35.25 74.2124 35.25 75.0938V84.6562C35.25 85.5376 35.964 86.25 36.8438 86.25H43.2188C44.0985 86.25 44.8125 85.5376 44.8125 84.6562V75.0938C44.8125 74.2124 44.0985 73.5 43.2188 73.5ZM41.625 83.0625H38.4375V76.6875H41.625V83.0625Z" fill="#231F20"/>
</svg>
