<svg width="82" height="82" viewBox="0 0 82 82" fill="none" xmlns="http://www.w3.org/2000/svg">
<path d="M43.875 32.375V12.25H18V58.25H64V32.375H43.875ZM23.75 18H38.125V32.375H23.75V18ZM23.75 38.125H38.125V52.5H23.75V38.125ZM58.25 52.5H43.875V38.125H58.25V52.5Z" fill="#F5F2F2"/>
<path d="M75.5 26.625H49.625V0.75H75.5V26.625ZM55.375 20.875H69.75V6.5H55.375V20.875ZM75.5 52.5H69.75V58.25H75.5V75.5H6.5V58.25H12.25V52.5H6.5C4.97547 52.5015 3.51382 53.1078 2.43582 54.1858C1.35781 55.2638 0.751522 56.7255 0.75 58.25V75.5C0.751522 77.0245 1.35781 78.4862 2.43582 79.5642C3.51382 80.6422 4.97547 81.2485 6.5 81.25H75.5C77.0245 81.2485 78.4862 80.6422 79.5642 79.5642C80.6422 78.4862 81.2485 77.0245 81.25 75.5V58.25C81.2485 56.7255 80.6422 55.2638 79.5642 54.1858C78.4862 53.1078 77.0245 52.5015 75.5 52.5Z" fill="#F5F2F2"/>
<path d="M15.125 69.75C16.7128 69.75 18 68.4628 18 66.875C18 65.2872 16.7128 64 15.125 64C13.5372 64 12.25 65.2872 12.25 66.875C12.25 68.4628 13.5372 69.75 15.125 69.75Z" fill="#F5F2F2"/>
</svg>
