<svg width="96" height="98" viewBox="0 0 96 98" fill="none" xmlns="http://www.w3.org/2000/svg">
<path d="M78.2002 85.853C78.2177 85.9933 78.2337 86.1335 78.2432 86.2754C78.2305 86.1335 78.2241 85.9917 78.2002 85.853Z" fill="#8C8879"/>
<path d="M71.9844 80.2893C72.3509 80.2941 72.7079 80.3339 73.057 80.3977C72.6952 80.3276 72.3366 80.2941 71.9844 80.2893Z" fill="#8C8879"/>
<path d="M71.2065 80.3243C71.291 80.3147 71.3787 80.3147 71.4631 80.3083C71.3771 80.3147 71.291 80.3147 71.2065 80.3243Z" fill="#8C8879"/>
<path d="M73.7119 80.573C73.7852 80.5953 73.8585 80.616 73.9319 80.6415C73.8585 80.6144 73.7852 80.5969 73.7119 80.573Z" fill="#8C8879"/>
<path d="M77.7361 89.219C77.6469 89.423 77.5289 89.6111 77.4189 89.8039C77.5289 89.6111 77.6453 89.4246 77.7361 89.219Z" fill="#8C8879"/>
<path d="M78.2767 86.9144C78.2783 86.8682 78.2687 86.8236 78.2703 86.7773C78.2655 87.0132 78.2305 87.2379 78.2002 87.4674C78.2241 87.2826 78.2687 87.1041 78.2767 86.9144Z" fill="#8C8879"/>
<path d="M78.1187 88.0459C78.0692 88.2658 77.9912 88.4746 77.9194 88.685C77.9912 88.473 78.0692 88.2658 78.1187 88.0459Z" fill="#8C8879"/>
<path d="M77.1449 90.2788C77.0174 90.4637 76.8628 90.6278 76.7178 90.7968C76.8644 90.6262 77.0174 90.4637 77.1449 90.2788Z" fill="#8C8879"/>
<path d="M76.3687 91.2017C76.2046 91.3626 76.0165 91.4981 75.8364 91.6415C76.0181 91.4981 76.2046 91.3626 76.3687 91.2017Z" fill="#8C8879"/>
<path d="M75.4318 91.9634C75.231 92.0973 75.0111 92.1977 74.7959 92.3092C75.0111 92.1993 75.2326 92.0973 75.4318 91.9634Z" fill="#8C8879"/>
<path d="M74.3592 92.5388C74.109 92.6424 73.8428 92.7093 73.5767 92.7811C73.8412 92.7093 74.109 92.6424 74.3592 92.5388Z" fill="#8C8879"/>
<path d="M91.0312 77.0938H64.6069L70.44 80.4566C70.687 80.3976 70.9436 80.3546 71.2066 80.3243C71.2911 80.3147 71.3787 80.3147 71.4632 80.3083C71.6098 80.2972 71.7564 80.2812 71.9062 80.2812C71.9333 80.2812 71.9573 80.2892 71.9843 80.2892C72.3366 80.294 72.6952 80.3259 73.0569 80.3976C73.2832 80.439 73.4968 80.5092 73.7136 80.5729C73.7869 80.5968 73.8602 80.6143 73.9335 80.6414C76.2078 81.408 77.8908 83.405 78.2016 85.853C78.2239 85.9932 78.2318 86.1351 78.2446 86.2753C78.2526 86.4044 78.2828 86.5256 78.2828 86.6562C78.2828 86.6977 78.2717 86.7359 78.2701 86.7774C78.2701 86.8236 78.2797 86.8682 78.2765 86.9144C78.2685 87.1041 78.2239 87.2826 78.2 87.4675C78.1745 87.6619 78.1617 87.8579 78.1203 88.046C78.0709 88.2675 77.9928 88.4747 77.9211 88.6851C77.8605 88.8636 77.8127 89.0469 77.7362 89.219C77.6469 89.423 77.529 89.6111 77.419 89.8039C77.3282 89.9633 77.2485 90.129 77.1449 90.2804C77.0174 90.4653 76.8644 90.6295 76.7178 90.7984C76.6014 90.9339 76.4962 91.0773 76.3688 91.2032C76.2046 91.3642 76.0165 91.4997 75.8364 91.6431C75.701 91.7499 75.5767 91.8694 75.4332 91.965C75.2324 92.0989 75.0125 92.1993 74.7973 92.3109C74.6507 92.3858 74.5136 92.4766 74.3606 92.5404C74.1104 92.644 73.8442 92.7109 73.5781 92.7826C73.4426 92.8193 73.3151 92.8767 73.1765 92.9037C72.7653 92.9866 72.3413 93.0312 71.9062 93.0312C69.1809 93.0312 66.87 91.3259 65.9616 88.9194L45.4659 77.0938H4.96875C3.20766 77.0938 1.78125 78.5202 1.78125 80.2812V93.0312C1.78125 94.7923 3.20766 96.2188 4.96875 96.2188H91.0312C92.7923 96.2188 94.2188 94.7923 94.2188 93.0312V80.2812C94.2188 78.5202 92.7923 77.0938 91.0312 77.0938Z" fill="#DDDDDD"/>
<path d="M65.5311 86.6562C65.5311 83.644 67.6189 81.1259 70.4398 80.4565L64.6067 77.0937L20.7307 51.7849C20.0932 55.2433 17.5751 58.0324 14.292 59.1002L45.4657 77.0937L65.9614 88.9193C65.6745 88.218 65.5311 87.453 65.5311 86.6562Z" fill="#DDDDDD"/>
<path d="M78.2653 86.7838C78.2653 87.0069 78.2334 87.2459 78.2016 87.4691C78.1697 87.6603 78.1538 87.8516 78.1219 88.0428C78.0741 88.2659 77.9944 88.4731 77.9147 88.6803C77.8669 88.8716 77.8191 89.0469 77.7394 89.2222C77.6438 89.4294 77.5322 89.6047 77.4206 89.7959C77.325 89.9553 77.2453 90.1306 77.1497 90.2741C77.0222 90.4653 76.8628 90.6247 76.7194 90.8C76.6078 90.9275 76.4962 91.0709 76.3687 91.1984C76.2094 91.3578 76.0181 91.5013 75.8428 91.6447C75.6994 91.7563 75.5719 91.8678 75.4284 91.9634C75.2372 92.0909 75.0141 92.2025 74.7909 92.3141C74.6475 92.3778 74.52 92.4734 74.3606 92.5372C74.1056 92.6487 73.8347 92.7125 73.5797 92.7762C73.4362 92.8241 73.3087 92.8719 73.1812 92.9037C72.7669 92.9834 72.3366 93.0312 71.9062 93.0312C69.1809 93.0312 66.87 91.3259 65.9616 88.9194C65.6747 88.2181 65.5312 87.4531 65.5312 86.6562C65.5312 83.6441 67.6191 81.1259 70.44 80.4566C70.6791 80.3928 70.95 80.3609 71.205 80.3291C71.2847 80.3131 71.3803 80.3131 71.46 80.3131C71.6353 80.2972 71.8106 80.2812 71.9859 80.2812C72.3525 80.2972 72.7031 80.3291 73.0538 80.3928C73.2769 80.4406 73.5 80.5044 73.7072 80.5681C73.7869 80.6 73.8666 80.6159 73.9303 80.6478C75.0938 81.0622 76.2412 81.9069 77.1975 83.3412C77.6916 84.1062 78.0581 84.9669 78.2016 85.8594C78.2175 85.9869 78.2334 86.1303 78.2494 86.2737C78.2494 86.4491 78.2653 86.6084 78.2653 86.7838Z" fill="#C6C5CA"/>
<path d="M77.9212 88.6851C77.8606 88.8636 77.8128 89.0468 77.7363 89.219C77.8112 89.0468 77.8606 88.8652 77.9212 88.6851Z" fill="#8C8879"/>
<path d="M78.1998 87.4675C78.1743 87.6604 78.1616 87.858 78.1201 88.0461C78.1616 87.858 78.1759 87.662 78.1998 87.4675Z" fill="#8C8879"/>
<path d="M71.9064 80.2812C71.7566 80.2812 71.61 80.2972 71.4634 80.3083C71.6355 80.2956 71.8076 80.2876 71.9845 80.2892C71.9574 80.2892 71.9335 80.2812 71.9064 80.2812Z" fill="#8C8879"/>
<path d="M78.2814 86.6563C78.2814 86.5256 78.2511 86.4045 78.2432 86.2754C78.2575 86.4427 78.2718 86.6085 78.2687 86.7774C78.2687 86.736 78.2814 86.6977 78.2814 86.6563Z" fill="#8C8879"/>
<path d="M77.4191 89.8022C77.3283 89.9616 77.2486 90.1274 77.145 90.2788C77.2486 90.129 77.3283 89.9616 77.4191 89.8022Z" fill="#8C8879"/>
<path d="M73.0571 80.3977C73.2755 80.4407 73.4938 80.5029 73.7138 80.573C73.497 80.5093 73.2834 80.4391 73.0571 80.3977Z" fill="#8C8879"/>
<path d="M77.1929 83.3475C77.6966 84.1141 78.0536 84.9636 78.2002 85.8529C77.8894 83.4033 76.2064 81.4064 73.9321 80.6414C75.1019 81.0685 76.2478 81.9084 77.1929 83.3475Z" fill="#8C8879"/>
<path d="M20.7786 48.5337L54.3748 14.9375C50.8527 14.9375 47.9998 12.0846 47.9998 8.56246C47.9998 8.27559 48.0158 7.98871 48.0636 7.71777L14.7383 41.059C17.8939 42.2543 20.2686 45.0912 20.7786 48.5337Z" fill="#DDDDDD"/>
<path d="M60.75 8.5625C60.75 8.73781 60.75 8.89719 60.7181 9.0725C60.5428 11.4472 59.0606 13.4394 56.9887 14.3638C56.1919 14.7303 55.2994 14.9375 54.375 14.9375C50.8528 14.9375 48 12.0847 48 8.5625C48 8.27562 48.0159 7.98875 48.0638 7.71781C48.4303 4.865 50.6775 2.61781 53.5303 2.25125C53.8013 2.20344 54.0881 2.1875 54.375 2.1875C57.8972 2.1875 60.75 5.04031 60.75 8.5625Z" fill="#C6C5CA"/>
<path d="M20.9062 50C20.9062 50.6056 20.8425 51.2112 20.7309 51.785C20.0934 55.2434 17.5753 58.0325 14.2922 59.1003C13.3678 59.4031 12.3797 59.5625 11.3438 59.5625C6.06844 59.5625 1.78125 55.2753 1.78125 50C1.78125 44.7247 6.06844 40.4375 11.3438 40.4375C12.5391 40.4375 13.6866 40.6606 14.7384 41.0591C17.8941 42.2544 20.2687 45.0912 20.7787 48.5337C20.8744 49.0119 20.9062 49.5059 20.9062 50Z" fill="#C6C5CA"/>
<path d="M56.9888 14.3638L68.8781 26.2531C69.4041 24.0219 71.0616 22.2528 73.2291 21.5834L60.7181 9.07251C60.5428 11.4472 59.0606 13.4394 56.9888 14.3638Z" fill="#DDDDDD"/>
<path d="M81.4688 27.6875C81.4688 29.6478 80.5763 31.4169 79.1738 32.5962C78.0741 33.5047 76.6397 34.0625 75.0938 34.0625C73.5478 34.0625 72.1134 33.5047 71.0137 32.5962C69.6112 31.4169 68.7188 29.6478 68.7188 27.6875C68.7188 27.1934 68.7825 26.7153 68.8781 26.2531C69.4041 24.0219 71.0616 22.2528 73.2291 21.5834C73.8188 21.4081 74.4403 21.3125 75.0938 21.3125C78.6159 21.3125 81.4688 24.1653 81.4688 27.6875Z" fill="#C6C5CA"/>
<path d="M71.0137 32.5962L75.0937 48.4062L79.1737 32.5962C78.074 33.5046 76.6396 34.0624 75.0937 34.0624C73.5477 34.0624 72.1134 33.5046 71.0137 32.5962Z" fill="#E0E0E2"/>
<path d="M11.3438 53.1875C13.1042 53.1875 14.5312 51.7604 14.5312 50C14.5312 48.2396 13.1042 46.8125 11.3438 46.8125C9.58334 46.8125 8.15625 48.2396 8.15625 50C8.15625 51.7604 9.58334 53.1875 11.3438 53.1875Z" fill="#57565C"/>
<path d="M54.375 10.1562C55.2552 10.1562 55.9688 9.4427 55.9688 8.5625C55.9688 7.6823 55.2552 6.96875 54.375 6.96875C53.4948 6.96875 52.7812 7.6823 52.7812 8.5625C52.7812 9.4427 53.4948 10.1562 54.375 10.1562Z" fill="#8C8879"/>
<path d="M75.0938 29.2812C75.974 29.2812 76.6875 28.5677 76.6875 27.6875C76.6875 26.8073 75.974 26.0938 75.0938 26.0938C74.2135 26.0938 73.5 26.8073 73.5 27.6875C73.5 28.5677 74.2135 29.2812 75.0938 29.2812Z" fill="#8C8879"/>
<path d="M71.9062 88.25C72.7865 88.25 73.5 87.5365 73.5 86.6562C73.5 85.776 72.7865 85.0625 71.9062 85.0625C71.026 85.0625 70.3125 85.776 70.3125 86.6562C70.3125 87.5365 71.026 88.25 71.9062 88.25Z" fill="#8C8879"/>
<path d="M91.0312 75.5H65.034L22.4522 50.9387C22.4793 50.6232 22.4984 50.3108 22.4984 50C22.4984 49.6781 22.4857 49.3784 22.4618 49.1027L55.0715 16.493C55.5815 16.4468 56.0851 16.348 56.5744 16.2045L67.176 26.8062C67.1425 27.1074 67.1234 27.4006 67.1234 27.6875C67.1234 29.8646 68.0159 31.9221 69.5826 33.4362L73.5478 48.8047C73.7295 49.5075 74.3654 50 75.0922 50C75.8189 50 76.4532 49.5075 76.6365 48.8047L80.6018 33.4377C82.1652 31.9301 83.0609 29.8678 83.0609 27.6875C83.0609 23.2935 79.4861 19.7188 75.0922 19.7188C74.6379 19.7188 74.1885 19.7682 73.7407 19.8431L62.3278 8.43022C62.2561 4.09841 58.7212 0.59375 54.3718 0.59375C53.9909 0.59375 53.6084 0.61925 53.3247 0.67025C49.9332 1.10534 47.2509 3.67287 46.6039 6.92094L14.3002 39.2422C13.3391 38.9776 12.3478 38.8438 11.3438 38.8438C5.19347 38.8438 0.1875 43.8497 0.1875 50C0.1875 56.1503 5.19347 61.1562 11.3438 61.1562C12.2713 61.1562 13.1686 61.0128 14.0388 60.7945L39.5181 75.5H4.96875C2.33269 75.5 0.1875 77.6452 0.1875 80.2812V93.0312C0.1875 95.6673 2.33269 97.8125 4.96875 97.8125H91.0312C93.6673 97.8125 95.8125 95.6673 95.8125 93.0312V80.2812C95.8125 77.6452 93.6673 75.5 91.0312 75.5ZM72.5533 81.9403C73.5892 82.0933 74.826 82.648 75.8619 84.2226C76.16 84.6768 76.4963 85.3207 76.6285 86.0666C76.6301 86.0793 76.6317 86.0937 76.6333 86.1064C76.6684 86.3152 76.6811 86.5319 76.6795 86.7535C76.6763 86.9399 76.6492 87.1184 76.6237 87.2985C76.6062 87.4276 76.5982 87.5599 76.5712 87.6858C76.5233 87.8994 76.4532 88.1034 76.3783 88.3042C76.348 88.3855 76.3273 88.4699 76.2938 88.5496C76.1871 88.7967 76.0564 89.0325 75.9098 89.2557C75.8938 89.2812 75.8811 89.3098 75.8635 89.3353C75.1862 90.3314 74.1423 91.055 72.9278 91.3212C72.9071 91.3259 72.888 91.3355 72.8673 91.3387C72.5565 91.4024 72.2362 91.4359 71.9078 91.4359C69.9093 91.4359 68.1593 90.2262 67.4374 88.3138C67.2302 87.8101 67.1266 87.2507 67.1266 86.6547C67.1266 84.4314 68.6407 82.5205 70.8161 82.0041C71.1476 81.9244 71.4855 81.8893 71.8218 81.883C71.9126 81.883 72.013 81.8893 72.1102 81.8925C72.2601 81.8989 72.4067 81.918 72.5533 81.9372V81.9403ZM75.0938 42.0265L73.4028 35.4762C73.4474 35.4857 73.4952 35.4825 73.5398 35.4905C74.0498 35.5909 74.5678 35.6562 75.0922 35.6562C75.6165 35.6562 76.1345 35.5909 76.6445 35.4905C76.6907 35.4809 76.7385 35.4857 76.7831 35.4762L75.0938 42.0265ZM79.875 27.6875C79.875 29.1107 79.2439 30.4527 78.1569 31.3691C76.8708 32.4337 75.0268 32.6951 73.4713 32.1675C72.9533 31.9906 72.4641 31.7261 72.0369 31.3722C70.942 30.4495 70.3125 29.1075 70.3125 27.6875C70.3125 27.3512 70.3539 26.9878 70.4288 26.6181C70.8209 24.9558 72.0704 23.6123 73.6928 23.1087C74.1455 22.9748 74.6156 22.9062 75.0938 22.9062C77.7298 22.9062 79.875 25.0514 79.875 27.6875ZM70.3938 21.2758C70.0575 21.5245 69.7403 21.7938 69.4471 22.0903C69.3977 22.1397 69.3435 22.1827 69.2957 22.2337C68.9881 22.562 68.7172 22.9238 68.4669 23.3015C68.4287 23.3589 68.3777 23.4051 68.3426 23.4625L59.5212 14.6395C59.5515 14.614 59.5722 14.5821 59.6025 14.555C59.9356 14.2665 60.2368 13.9494 60.5141 13.6131C60.5827 13.5302 60.6512 13.4505 60.7165 13.3645C61.0018 12.9883 61.2568 12.5915 61.4704 12.1707C61.4799 12.15 61.4959 12.1341 61.507 12.1134L70.542 21.1483C70.4878 21.185 70.4464 21.2376 70.3938 21.2758ZM53.8108 3.8195C53.9909 3.78603 54.1838 3.78125 54.375 3.78125C57.0111 3.78125 59.1562 5.92644 59.1562 8.5625C59.1562 8.64219 59.1642 8.7155 59.1499 8.79519C59.1403 8.84778 59.1323 8.90037 59.1292 8.95456C59.0017 10.6822 57.9323 12.1962 56.3194 12.915C55.7122 13.1955 55.0396 13.3438 54.3734 13.3438C51.7373 13.3438 49.5922 11.1986 49.5922 8.5625C49.5922 8.38878 49.6017 8.21666 49.6272 8.05091C49.6336 8.00628 49.6352 7.96803 49.6432 7.92022C49.9157 5.78619 51.5971 4.10478 53.8076 3.82109L53.8108 3.8195ZM46.8509 11.1858C46.878 11.2639 46.9274 11.3324 46.9561 11.4105C47.0645 11.691 47.1999 11.9556 47.3386 12.2202C47.447 12.4273 47.5458 12.6361 47.6717 12.8338C47.8374 13.0919 48.0287 13.3262 48.2215 13.5621C48.3618 13.7342 48.4909 13.9143 48.6455 14.0753C48.8702 14.308 49.1204 14.5088 49.3722 14.7128C49.5316 14.8419 49.6766 14.9853 49.844 15.1033C50.1452 15.312 50.4719 15.4794 50.8002 15.6451C50.9341 15.7137 51.0536 15.8061 51.1907 15.8667L21.5517 45.5072C21.5517 45.5072 21.5469 45.4977 21.5437 45.4929C21.335 45.0163 21.0911 44.5589 20.8186 44.1191C20.7453 44.0011 20.656 43.8943 20.5779 43.778C20.3692 43.4672 20.1556 43.1612 19.9149 42.8727C19.7938 42.7277 19.6599 42.5954 19.5308 42.4568C19.3093 42.2161 19.0878 41.9803 18.8455 41.7603C18.6941 41.6232 18.5332 41.4973 18.3754 41.3682C18.1315 41.169 17.8845 40.9778 17.6231 40.7993C17.5498 40.7483 17.4861 40.6877 17.4112 40.6383L46.8509 11.1858ZM3.375 50C3.375 45.606 6.94978 42.0312 11.3438 42.0312C12.3143 42.0312 13.2674 42.205 14.1727 42.5492C16.8565 43.566 18.7834 45.9487 19.2153 48.8493C19.2806 49.1681 19.3125 49.5458 19.3125 50C19.3125 50.4845 19.2631 50.9818 19.1627 51.4965C19.0973 51.8535 19.0081 52.201 18.8965 52.5388C18.7435 53.001 18.5347 53.4361 18.3037 53.8569C17.5163 55.2849 16.3083 56.4563 14.807 57.1798C14.4834 57.336 14.1472 57.4715 13.7997 57.5831C13.7997 57.5831 13.7981 57.5831 13.7965 57.5831C13.0236 57.8365 12.198 57.9656 11.3453 57.9656C6.95138 57.9656 3.37659 54.3908 3.37659 49.9968L3.375 50ZM18.004 58.9266C18.2829 58.7194 18.5587 58.509 18.8168 58.2779C18.9635 58.1457 19.0973 58.0006 19.236 57.8604C19.4655 57.6309 19.6902 57.3982 19.8974 57.1496C20.0281 56.9934 20.1476 56.8292 20.2703 56.6651C20.4616 56.4101 20.6433 56.1503 20.8122 55.8793C20.9206 55.704 21.021 55.5271 21.1198 55.3454C21.2728 55.0633 21.4147 54.7765 21.5422 54.4816C21.5868 54.378 21.6489 54.284 21.6904 54.1788L63.81 78.4707C63.81 78.4707 63.8116 78.4723 63.8132 78.4739L67.0469 80.3386C66.9736 80.3944 66.9194 80.4677 66.8493 80.5251C66.5863 80.7418 66.3425 80.9761 66.1098 81.2232C65.9998 81.3411 65.8835 81.4511 65.7799 81.5754C65.4802 81.9356 65.2093 82.3181 64.9782 82.7261C64.9639 82.75 64.9463 82.7707 64.932 82.7946C64.6913 83.2281 64.5033 83.6903 64.3471 84.1684C64.2993 84.3166 64.269 84.4696 64.2307 84.6194C64.1399 84.9637 64.0682 85.3127 64.0236 85.6729C64.0124 85.7606 63.9805 85.8418 63.9726 85.9295L58.6877 82.8807L17.6598 59.2023C17.7825 59.1194 17.8861 59.0143 18.0056 58.9266H18.004ZM92.625 93.0312C92.625 93.911 91.911 94.625 91.0312 94.625H4.96875C4.089 94.625 3.375 93.911 3.375 93.0312V80.2812C3.375 79.4015 4.089 78.6875 4.96875 78.6875H45.0404L64.7025 90.0334C64.7519 90.1386 64.8172 90.2326 64.8714 90.3346C64.9511 90.4876 65.0324 90.6374 65.1217 90.7825C65.238 90.9721 65.3623 91.1538 65.4914 91.3323C65.5902 91.4678 65.689 91.6017 65.7958 91.7307C65.9377 91.9013 66.0891 92.0607 66.2453 92.2184C66.3616 92.3364 66.4747 92.4543 66.5975 92.5643C66.7632 92.7141 66.9401 92.8496 67.1186 92.985C67.2477 93.0823 67.3736 93.1842 67.5075 93.2735C67.6972 93.3994 67.8964 93.5094 68.0956 93.6193C68.2343 93.6958 68.3681 93.7771 68.51 93.8457C68.7235 93.9477 68.9467 94.0289 69.1698 94.1118C69.31 94.1644 69.4455 94.225 69.5873 94.2696C69.8376 94.3461 70.0957 94.3987 70.3523 94.4497C70.4767 94.4752 70.5978 94.5134 70.7253 94.5326C71.1126 94.5915 71.5062 94.625 71.9062 94.625C72.4545 94.625 72.9868 94.5676 73.5032 94.464C73.5462 94.4561 73.5845 94.4369 73.6259 94.4274C75.6452 93.9859 77.3696 92.7874 78.4932 91.1299C78.5315 91.0741 78.5586 91.0104 78.5952 90.953C78.8263 90.5912 79.0399 90.2183 79.2104 89.8198C79.2742 89.6732 79.3124 89.517 79.3666 89.3656C79.4829 89.0421 79.5993 88.7202 79.6742 88.3791C79.7236 88.156 79.7379 87.9233 79.7682 87.6938C79.8001 87.4531 79.8575 87.222 79.867 86.9766C79.8686 86.9176 79.8575 86.8587 79.8591 86.7981C79.8591 86.7487 79.8734 86.7041 79.8734 86.6547C79.8734 86.5224 79.8415 86.4013 79.8352 86.2706C79.8208 86.0522 79.8049 85.8355 79.7698 85.6187C79.3746 82.6177 77.3234 80.1553 74.5487 79.172C74.2634 79.0636 73.9717 78.9728 73.6737 78.8995C73.5877 78.8803 73.5032 78.8548 73.4171 78.8389C73.041 78.7624 72.6585 78.7034 72.2696 78.6859H91.0297C91.9094 78.6859 92.6234 79.3999 92.6234 80.2797V93.0297L92.625 93.0312Z" fill="#231F20"/>
<path d="M16.125 50C16.125 47.3639 13.9798 45.2188 11.3438 45.2188C8.70769 45.2188 6.5625 47.3639 6.5625 50C6.5625 52.6361 8.70769 54.7812 11.3438 54.7812C13.9798 54.7812 16.125 52.6361 16.125 50ZM9.75 50C9.75 49.1202 10.464 48.4062 11.3438 48.4062C12.2235 48.4062 12.9375 49.1202 12.9375 50C12.9375 50.8797 12.2235 51.5938 11.3438 51.5938C10.464 51.5938 9.75 50.8797 9.75 50Z" fill="#231F20"/>
<path d="M54.375 11.75C56.1354 11.75 57.5625 10.3229 57.5625 8.5625C57.5625 6.80209 56.1354 5.375 54.375 5.375C52.6146 5.375 51.1875 6.80209 51.1875 8.5625C51.1875 10.3229 52.6146 11.75 54.375 11.75Z" fill="#231F20"/>
<path d="M75.0938 30.875C76.8542 30.875 78.2812 29.4479 78.2812 27.6875C78.2812 25.9271 76.8542 24.5 75.0938 24.5C73.3333 24.5 71.9062 25.9271 71.9062 27.6875C71.9062 29.4479 73.3333 30.875 75.0938 30.875Z" fill="#231F20"/>
<path d="M71.9062 89.8438C73.6667 89.8438 75.0938 88.4167 75.0938 86.6562C75.0938 84.8958 73.6667 83.4688 71.9062 83.4688C70.1458 83.4688 68.7188 84.8958 68.7188 86.6562C68.7188 88.4167 70.1458 89.8438 71.9062 89.8438Z" fill="#231F20"/>
</svg>
