<svg width="60" height="92" viewBox="0 0 60 92" fill="none" xmlns="http://www.w3.org/2000/svg">
<path fill-rule="evenodd" clip-rule="evenodd" d="M15.4942 9.52344C18.7914 9.52344 21.4621 10.7288 21.4621 12.2188C21.4621 13.7087 18.7914 14.9141 15.4942 14.9141C12.1969 14.9141 9.52627 13.7087 9.52627 12.2188C9.52627 10.7288 12.1969 9.52344 15.4942 9.52344ZM29.9663 41.2158C30.5184 43.5967 31.1599 45.4909 31.8611 46.9059C32.5698 48.3135 33.6515 49.8408 35.1062 51.4954L35.7328 52.1992C37.6351 54.318 38.575 56.4443 38.575 58.5632C38.575 60.9141 37.7321 62.9206 36.0387 64.6051C34.3453 66.2822 32.3162 67.1283 29.9663 67.1283C27.6165 67.1283 25.5948 66.2822 23.9015 64.6051C22.2081 62.9281 21.3651 60.9141 21.3651 58.5632C21.3651 56.4443 22.3125 54.318 24.2073 52.1992L24.8339 51.4954C26.2886 49.8483 27.3703 48.321 28.079 46.9059C28.7877 45.4909 29.4218 43.5892 29.9663 41.2158ZM24.267 57.2904C24.2222 56.8112 24.5803 56.3844 25.0577 56.3395C25.5352 56.2946 25.9604 56.654 26.0051 57.1331C26.117 58.2936 26.3707 59.3717 26.8556 60.2926C27.3255 61.1836 28.0193 61.9548 29.0264 62.5462C29.4441 62.7933 29.5784 63.3249 29.3397 63.7441C29.0935 64.1634 28.5639 64.2982 28.1461 64.0586C26.8332 63.2874 25.9231 62.2842 25.3114 61.1087C24.7146 59.9707 24.4013 58.6755 24.267 57.2904ZM29.9141 0C37.8663 0 45.1024 1.22786 50.3691 3.21191C56.0834 5.36068 59.6119 8.48275 59.6119 12.054C59.6119 13.3343 59.1568 14.5547 58.3139 15.6927V28.765C57.6425 29.4762 56.8443 30.1351 55.9267 30.7415C49.7425 34.8369 38.6347 36.4316 27.9298 36.1022C17.2547 35.7728 7.06451 33.5417 2.68556 29.9854C2.28272 29.6559 1.93211 29.3265 1.64863 28.9821L1.73815 28.8848V15.9922C0.745988 14.7718 0.208877 13.4466 0.208877 12.054C0.208877 8.47526 3.74486 5.36068 9.45167 3.21191C14.7258 1.22786 21.9619 0 29.9141 0ZM59.4478 30.6742C59.7835 31.3779 59.9551 31.8047 59.9551 32.8529C59.9551 33.901 59.3806 35.5033 58.3213 36.7087V62.8457C57.6499 63.557 56.8517 64.2158 55.9342 64.8223C49.7499 68.9176 38.6422 70.5124 27.9373 70.1829C17.2547 69.8535 7.06451 67.6224 2.68556 64.0586C2.26034 63.7142 1.90227 63.3623 1.61133 63.0104C1.65609 62.958 1.69339 62.9131 1.73815 62.8682V36.8135C0.61171 35.5781 0 33.8861 0 32.8454C0 31.8047 0.149198 31.4827 0.440133 30.8239C0.716148 31.1084 1.01454 31.3779 1.33532 31.64C6.0798 35.4958 16.7698 37.8991 27.8776 38.2435C38.9629 38.5879 50.5407 36.8809 57.1128 32.5309C57.9782 31.9619 58.754 31.3405 59.4478 30.6742ZM59.4776 64.7175C59.7909 65.3988 59.9551 65.7956 59.9551 66.8288C59.9551 67.862 59.3806 69.4792 58.3213 70.6846V77.1159C59.2091 78.2015 59.6865 79.3545 59.6865 80.5524C59.6865 86.8714 46.3855 92 29.9813 92C13.577 92 0.276016 86.8789 0.276016 80.5524C0.276016 79.3096 0.790747 78.1191 1.73815 77.0036V70.7969C0.61171 69.554 0 67.8545 0 66.8288C0 65.8031 0.141738 65.5111 0.410293 64.8747C0.693769 65.1667 0.999624 65.4512 1.33532 65.7207C6.0798 69.5765 16.7698 71.9798 27.8776 72.3242C38.9629 72.6686 50.5407 70.9616 57.1128 66.6117C57.9856 66.0277 58.7839 65.3988 59.4776 64.7175ZM49.0562 5.99707C44.1923 4.16276 37.4262 3.03223 29.9141 3.03223C22.402 3.03223 15.6359 4.16276 10.7721 5.99707C6.34836 7.65918 3.61058 9.81543 3.61058 12.054C3.61058 14.3001 6.34836 16.4489 10.7721 18.111C15.6359 19.9378 22.402 21.0758 29.9141 21.0758C37.4262 21.0758 44.1923 19.9453 49.0562 18.111C53.4799 16.4489 56.2177 14.2926 56.2177 12.054C56.2177 9.81543 53.4799 7.65918 49.0562 5.99707ZM15.4942 10.946C17.5009 10.946 19.1271 11.515 19.1271 12.2188C19.1271 12.9225 17.5009 13.4915 15.4942 13.4915C13.4875 13.4915 11.8612 12.9225 11.8612 12.2188C11.8612 11.5225 13.4875 10.946 15.4942 10.946Z" fill="#D0D0D0"/>
</svg>
