<svg width="932" height="462" viewBox="0 0 932 462" fill="none" xmlns="http://www.w3.org/2000/svg">
<g opacity="0.35" clip-path="url(#clip0_158_408)">
<path d="M709.431 28.0308C715.608 29.2851 721.551 29.8306 722.537 38.6666C723.039 43.167 729.111 43.6274 733.593 43.7488C741.633 43.9681 743.736 45.2677 743.257 52.4361C742.871 58.2253 744.742 59.9381 750.154 60.4148C757.281 61.0419 763.958 63.0737 771.458 60.19C778.208 57.5963 782.068 61.0202 785.273 69.1492C785.952 70.8711 786.926 73.1675 788.938 71.926C798.109 66.2673 809.06 70.6753 818.886 65.6819C825.412 62.365 834.712 63.8676 841.261 70.1606C844.427 73.2038 848.185 74.6665 852.114 71.9912C856.281 69.1546 859.732 71.7647 861.876 73.9705C868.688 80.9758 876.378 78.8932 884.194 77.4033C885.239 77.204 886.253 76.827 887.28 76.5333C891.525 75.3171 887.547 85.0593 892.305 80.9069C894.826 78.7065 896.589 78.2462 899.44 77.9C912.431 76.3213 922.01 83.6891 931.971 90.2195L927.206 101.412C926.862 101.324 926.515 101.244 926.167 101.171C923.342 100.582 920.763 95.6371 919.911 96.9892C918.149 99.7805 914.606 102.168 915.066 106.072C915.657 111.081 913.179 112.265 908.742 112.477C904.791 112.666 900.754 113.365 897.695 116.488C895.203 119.035 892.25 119.085 888.716 118.949C879.584 118.598 874.669 122.933 873.527 132.19C872.354 141.684 863.489 145.091 858.8 151.777C857.285 153.938 855.926 151.138 855.112 149.697C851.391 143.103 853.696 136.973 857.015 131.187C858.621 128.389 861.202 126.163 863.239 123.595C864.475 122.038 867.691 121.037 866.226 118.616C864.93 116.474 861.952 115.892 859.371 115.959C856.147 116.044 853.965 118.255 852.479 120.766C849.888 125.141 846.836 124.498 842.348 123.693C830.649 121.596 818.536 120.369 810.387 132.11C808.23 135.218 801.554 135.672 803.59 140.719C805.506 145.47 811.405 142.327 815.402 143.558C818.355 144.466 822.335 143.447 822.467 147.422C822.608 151.707 826.969 156.503 822.105 160.32C820.595 161.505 819.232 162.227 819.027 164.244C818.924 165.261 818.958 166.799 817.715 166.796C816.538 166.792 816.667 165.273 816.546 164.296C816.457 163.575 816.518 162.837 816.435 162.114C816.203 160.086 817.097 157.886 815.522 156.06C814.972 158.114 814.784 160.361 813.811 162.19C809.176 170.921 804.235 179.168 793.402 181.796C783.477 184.203 782.491 186.235 784.878 196.258C785.748 199.912 785.768 203.024 781.849 204.316C778.061 205.565 776.881 202.047 775.574 199.611C774.566 197.733 774.001 195.526 773.673 193.4C773.193 190.286 771.463 190.005 769.036 190.897C767.148 191.591 765.143 193.943 763.419 191.156C762.23 189.233 761.473 187.96 759.756 190.373C758.729 191.817 757.11 193.597 757.311 195.004C757.748 198.063 760.017 195.587 761.493 195.731C765.711 196.144 769.685 196.646 764.143 201.618C761.629 203.872 762.381 206.823 762.957 209.767C765.901 224.799 759.457 235.905 745.189 241.001C741.624 242.276 737.171 242.058 735.632 247.084C734.651 250.287 733.187 250.015 731.762 246.809C730.04 242.932 727.463 245.413 725.531 246.765C722.908 248.603 722.865 250.905 725.299 253.111C726.379 254.089 727.536 254.992 728.545 256.038C735.434 263.17 733.009 273.155 723.635 276.88C721.05 277.908 720.654 276.142 719.619 274.674C716.804 270.681 711.946 265.969 708.332 269.238C703.669 273.458 708.6 278.469 712.311 282.02C715.04 284.632 718.254 287.777 717.561 291.17C715.975 298.931 722.85 303.65 723.287 310.525C723.485 313.625 726.47 314.089 728.955 314.777C736.243 316.798 743.029 320.974 751.084 319.718C752.468 319.503 754.504 320.059 754.605 321.549C754.75 323.662 752.555 323.053 751.272 323.169C742.085 323.994 732.68 322.446 724.416 319.805C718.045 317.77 712.655 310.442 708.515 304.327C705.077 299.234 701.307 294.372 697.231 289.774C696.038 288.431 693.809 287.583 695.25 285.551C696.875 283.26 699.248 284.161 700.934 285.645C703.38 287.8 705.516 290.309 707.812 292.638C708.573 293.41 709.663 294.254 710.583 293.477C711.664 292.567 710.507 291.577 709.942 290.787C703.962 282.421 701.72 273.139 702.541 262.911C702.848 259.097 702.224 255.28 696.565 256.502C691.697 257.553 691.826 252.908 690.135 250.515C683.039 240.474 680.403 240.217 671.288 248.357C669.195 250.225 666.9 251.869 664.611 253.493C656.738 259.081 654.662 267.359 658.708 276.548C659.536 278.431 661.566 280.516 659.324 282.422C657.258 284.181 655.516 281.957 653.548 281.284C644.463 278.179 641.041 270.61 639.793 262.467C637.931 250.336 628.8 243.323 622.273 234.437C620.598 232.155 618.097 231.672 615.472 231.627C612.194 231.569 608.888 231.279 605.641 231.596C603.62 231.794 601.697 231.5 599.801 231.085C596.568 230.378 594.65 234.533 597.288 236.532C598.545 237.485 599.91 238.353 601.074 239.386C603.169 241.246 601.012 242.373 600.403 243.95C596.553 253.928 586.953 256.496 578.704 260.286C573.546 262.655 568.661 266.237 562.627 266.592C561.507 266.657 560.392 267.246 560.392 268.526C560.392 270.253 561.759 271.087 563.213 271.218C566.908 271.551 570.164 269.536 573.698 268.972C578.621 268.189 580.995 271.528 578.8 276.003C574.47 284.835 568.902 292.982 560.927 299.192C548.714 308.702 547.551 312.586 552.131 326.831C555.72 337.994 555.299 339.678 545.564 347.062C541.85 349.88 538.668 352.463 540.515 357.797C541.245 359.907 541.424 362.791 539.677 363.996C532.694 368.819 530.408 376.841 526.024 383.366C518.975 393.855 508.172 393.351 497.779 394.141C494.522 394.39 492.067 391.16 491.737 388.635C490.548 379.549 486.042 371.278 482.919 363.265C478.114 350.935 474.509 340.305 479.323 327.304C480.704 323.572 478.884 317.407 476.428 313.782C472.314 307.709 470.358 301.59 470.549 294.445C470.608 292.168 469.37 289.334 467.076 289.667C460.819 290.577 455.744 284.813 450.502 285.993C444.621 287.318 438.181 286.16 432.776 289.522C429.146 291.78 425.934 290.872 422.628 288.699C414.327 283.244 409.623 274.319 402.38 267.845C401.621 267.165 401.162 265.831 401.344 264.829C403.834 251.039 399.071 235.181 412.083 224.363C418.408 219.103 420.906 211.043 426.992 205.652C429.548 203.388 429.666 200.323 425.782 198.808C423.192 197.797 420.491 196.341 421.334 193.545C422.738 188.885 420.034 183.973 422.396 179.708C424.516 175.882 428.634 176.576 432.241 176.768C442.991 177.341 443.974 176.516 442.063 165.554C441.255 160.911 442.361 158.745 446.328 155.874C450.93 152.542 455.327 148.669 460.005 145.365C467.531 140.047 468.381 137.981 463.007 129.904C461.325 127.378 460.234 124.905 459.57 122.06C457.725 114.132 458.968 110.721 466.452 107.204C471.674 104.752 475.589 101.542 477.886 96.179C481.875 86.861 489.56 81.5793 498.657 78.0776C502.391 76.6403 506.291 75.638 510.05 74.2587C516.747 71.8009 522.468 70.6645 528.539 77.0898C532.536 81.3183 540.161 80.6676 545.452 84.0969C547.25 85.2641 550.045 85.4653 551.17 86.9987C555.575 92.9926 558.803 96.0956 561.304 85.7263C561.879 83.3465 565.683 82.5526 567.735 84.9959C570.852 88.7097 573.66 87.8397 577.198 85.797C583.132 82.3714 590.016 84.1078 596.407 82.8626C603.189 81.5413 598.739 78.6177 597.866 76.0965L597.987 75.9461C603.323 77.039 608.634 78.2842 614.004 79.1615C616.846 79.6255 618.849 79.6943 619.732 75.2446C621.648 65.5858 625.985 63.7643 636.59 64.763C640.385 65.12 644.054 64.4657 647.898 66.164C650.118 67.1446 654.1 66.7132 654.717 62.7692C655.576 57.2683 658.387 57.977 662.53 59.1913C666.362 60.3133 671.591 62.2327 671.537 54.4988C671.522 52.4724 674.027 52.1026 675.787 51.7184C683.517 50.0328 690.727 46.4839 699.061 46.8555C706.714 47.1962 708.778 42.1158 704.666 34.8205C706.92 33.0333 708.218 30.5629 709.431 28.0308ZM464.205 178.662C456.137 180.087 450.664 184.953 447.378 191.966C445.772 195.393 444.372 198.467 440.822 200.155C439.638 200.717 437.238 200.394 437.528 201.938C437.755 203.142 440.176 202.89 441.474 202.437C447.977 200.169 454.45 198.047 461.421 197.442C465.229 197.11 468.647 197.657 471.966 199.176C475.228 200.67 474.81 203.755 474.989 206.684C475.13 208.96 476.912 210.858 479.191 210.976C486.491 211.351 493.448 217.54 501.182 212.146C502.374 211.314 504.968 211.487 506.422 212.199C514.465 216.148 523.069 213.408 531.336 214.544C535.385 215.101 536.824 211.137 537.6 208.197C538.548 204.601 535.63 204.528 532.83 204.335C530.404 204.166 527.889 202.136 525.685 202.513C518.094 203.811 514.752 200.659 514.271 193.373C514.175 191.901 513.282 190.498 511.453 190.75C510.222 190.92 510.329 192.271 509.863 193.166C507.175 198.339 500.217 199.227 496.89 194.826C495.88 193.492 495.791 189.952 494.325 190.688C486.769 194.48 483.426 187.464 478.391 185.028C475.085 183.427 473.03 182.84 472.698 187.64C472.522 190.193 471.094 193.418 468.214 192.57C464.076 191.352 467.748 188.482 467.926 186.316C468.2 183.07 470.549 178.749 464.205 178.662ZM493.038 138.9C498.075 139.162 497.658 138.898 499.704 135.673C504.509 128.099 502.604 120.612 500.096 113.068C499.391 110.945 499.672 107.025 495.782 108.412C492.82 109.468 490.966 112.916 492.886 115.524C499.373 124.347 490.838 128.606 487.347 133.942C485.165 137.279 480.778 140.663 477.074 134.361C476.532 133.439 475.283 132.692 474.405 133.562C473.777 134.185 473.526 135.605 473.702 136.56C474.859 142.82 479.79 141.486 484.006 141.497C487.258 141.506 489.319 137.316 493.038 138.9ZM552.968 182.945C551.431 176.955 542.934 177.473 541.678 170.6C541.392 169.032 539.25 173.007 537.725 174.16C535.311 175.985 532.873 176.531 531.378 173.529C530.154 171.073 528.839 169.598 526.711 171.84C524.278 174.403 521.398 177.049 521.866 181.187C522.163 183.817 524.186 185.318 526.408 184.834C533.382 183.315 539.842 184.29 546.427 186.882C549.186 187.966 552.207 186.664 552.968 182.945ZM546.094 239.805C543.812 240.298 543.723 241.957 543.603 243.771C543.252 249.06 547.054 252.136 549.851 255.737C551.12 257.37 552.423 260.29 554.52 259.396C557.547 258.106 555.64 255.133 555.067 252.89C553.982 248.627 550.839 245.509 548.636 241.87C548.133 241.032 547.041 240.55 546.094 239.805ZM0.44043 146.306C9.55549 140.716 18.7847 135.371 28.9873 131.927C30.2887 131.488 32.0976 130.682 31.9562 129.109C31.7931 127.287 29.5945 128.079 28.4417 127.401C23.7456 124.639 18.8772 122.118 14.4257 119.002C8.92655 115.152 9.18212 111.966 14.8444 108.517C16.066 107.772 17.5033 107.386 18.8337 106.813C20.358 106.155 23.461 106.608 22.852 104.359C22.3173 102.383 19.6656 104.25 17.9601 104.154C16.5264 104.074 14.9857 104.156 13.6934 103.65C11.2012 102.675 9.00268 100.817 9.44855 97.9824C10.0159 94.3738 13.2204 94.0947 16.2237 94.0602C17.5613 94.0439 19.4789 95.6117 20.0734 93.937C20.6262 92.3818 18.3352 92.1335 17.1807 91.3849C8.55499 85.7843 8.58762 84.4141 17.2767 79.3699C19.4753 78.0939 21.5343 76.5261 23.8416 75.5057C30.4011 72.6057 36.5654 70.8493 44.3066 73.5717C52.6966 76.5225 62.1325 76.3503 70.9829 78.1755C81.963 80.4393 92.3885 80.4918 103.586 77.6462C114.342 74.913 125.871 76.9466 136.659 80.7402C137.955 81.1951 139.617 82.3406 140.625 80.8362C141.536 79.475 140.423 77.9978 139.204 77.1768C137.382 75.9533 135.716 74.9257 135.254 72.3882C134.73 69.5135 133.03 68.8719 130.814 71.2553C128.185 74.081 125.023 74.0303 121.796 72.6256C118.494 71.1883 115.969 69.0785 118.255 65.0947C119.534 62.8635 120.935 60.8262 120.781 58.073C120.564 54.2106 123.941 53.3605 125.865 54.5966C132.059 58.5696 139.823 56.3674 146.115 61.2286C151.288 65.2269 158.431 66.3997 165.255 62.24C169.193 59.8402 173.349 59.3091 172.488 66.3906C172.155 69.1401 173.077 72.1417 175.115 73.2201C180.708 76.1799 185.401 78.4618 177.438 84.2528C175.769 85.4671 177.011 87.7545 179.088 88.3436C181.564 89.045 185.114 89.5326 185.399 86.3752C185.732 82.6759 187.016 80.6676 189.903 78.5343C194.614 75.0543 193.821 72.9301 187.771 72.8666C182.856 72.8141 181.172 67.721 177.473 65.6928C181.781 64.917 183.474 59.7496 188.119 59.4306C190.648 59.2566 193.153 58.7092 195.663 58.296C199.244 57.7069 201.697 55.9234 202.224 52.0773C202.492 50.127 202.351 48.329 200.047 47.8705C196.761 47.218 193.872 45.2641 190.907 50.0219C186.72 56.7372 178.424 51.1167 172.626 54.1925L171.124 50.214C172.032 49.2498 172.133 48.2873 171.12 47.3249C171.865 43.457 169.057 39.9698 170.933 35.6325C174.08 28.3571 174.87 27.614 181.214 31.6341C183.106 32.834 185.527 34.1861 184.788 36.5151C183.797 39.629 181.159 36.99 179.274 37.1169C176.934 37.2746 174.681 37.4848 174.656 40.4211C174.631 43.3102 176.764 43.8231 179.178 43.8086C181.721 43.7941 184.271 44.0443 186.805 43.9083C191.48 43.6582 194.211 42.0723 190.454 37.2311C188.819 35.1231 186.72 32.7959 189.415 30.668C192.221 28.4513 194.168 31.6721 195.527 33.3868C196.885 35.0996 201.646 35.0978 198.828 39.8048C197.974 41.2313 202.492 42.2046 204.8 42.7737C205.904 43.0456 206.989 42.3713 207.265 41.1406C207.823 38.6412 206.632 36.9755 204.497 35.8427C204.16 35.6696 203.836 35.4722 203.527 35.2518C190.042 25.3411 190.204 22.2326 204.684 13.7103C207.189 12.2319 209.903 11.1417 212.735 10.4768C227.558 6.94239 242.748 5.92197 257.792 4.16203C264.079 3.42615 270.74 5.57939 277.189 6.67595C279.64 7.09283 283.923 8.10421 283.982 9.0594C284.158 11.8361 280.301 11.7346 278.578 13.5073C277.599 14.515 275.774 15.2328 276.747 16.9256C277.858 18.856 280.318 18.9484 281.38 17.5238C287.707 9.04671 296.532 11.1909 305.212 10.6508C312.276 10.2121 319.41 9.28233 326.669 6.7847C334.662 4.03333 344.196 3.23583 353.176 2.51627C354.976 2.37308 357.291 3.39533 358.549 2.59421C369.413 -4.31504 378.497 5.96728 388.64 5.4779C389.849 5.4199 390.78 6.44213 390.393 7.65469C390.103 8.56094 389.164 9.86233 388.426 9.92214C383.358 10.3372 378.265 10.446 373.183 10.7196C372.135 10.7758 371.102 11.1202 370.062 11.3323C370.678 13.1103 372.258 12.5032 373.406 12.5013C384.261 12.476 395.096 14.0093 405.985 12.7043C408.63 12.3872 412.463 12.0101 412.984 15.9886C413.393 19.1188 410.065 19.7115 407.901 20.8986C400.122 25.1689 391.447 28.9244 397.407 40.5788C398.152 42.0342 396.218 43.3791 396.251 44.5101C396.544 54.5604 387.759 62.4158 389.635 72.8938C390.162 75.841 388.312 78.915 385.316 79.8393C378.771 81.8585 373.679 87.6277 366.205 87.1618C365.498 87.1183 364.622 87.1673 364.075 87.5425C353.374 94.8613 339.124 98.3341 335.541 113.43C334.18 119.163 330.823 119.879 325.703 118.415C317.592 116.095 313.581 109.923 309.506 103.26C305.285 96.3566 303.454 90.1071 309.919 83.6238C310.929 82.6124 310.858 81.3437 309.446 80.0224C306.222 77.0064 300.523 67.1246 299.668 63.8386C297.045 53.7575 287.008 45.5269 277.062 48.184C266.073 51.1203 262.118 43.805 256.599 38.0159C254.355 35.6633 256.322 34.0175 258.35 33.0043C261.252 31.5525 264.67 31.5616 267.481 29.5551C269.76 27.9293 269.914 26.541 268.752 24.1485C267.527 21.6236 266.026 22.5118 264.366 23.177C254.489 27.1318 245.724 31.9767 242.482 43.4661C241.396 47.3177 238.355 50.4605 237.358 54.8722C236.5 58.6675 231.302 57.803 227.797 58.3721C226.519 58.5805 224.306 57.3716 224.194 59.1406C224.11 60.4528 226.765 59.8257 227.904 60.48C235.781 65.0004 245.55 62.249 253.413 67.9421C259.673 72.4752 267.05 74.8513 270.097 83.3737C271.583 87.5334 277.345 89.0378 281.684 90.8612C283.712 91.713 286.654 92.371 284.439 94.9937C282.705 97.0472 281.882 101.972 277.242 99.5249C275.679 98.7002 274.516 97.1324 273.136 95.9434C272.335 95.2528 271.25 94.3303 270.36 95.1096C269.377 95.9688 270.334 97.0381 271.018 97.8157C271.978 98.9105 273.153 99.8366 274.005 101.002C275.56 103.13 279.634 105.12 276.446 108.051C274.041 110.264 271.012 113.826 266.94 111.915C258.916 108.154 251.727 102.097 241.898 103.844C240.966 104.009 240.051 102.775 240.035 101.588C240.015 100.259 240.961 99.7152 242.145 99.621C243.955 99.476 245.871 99.7406 247.564 99.2367C252.211 97.852 255.066 92.1081 253.411 87.9684C251.488 83.1598 239.837 77.5683 234.322 78.2008C230.412 78.6503 232.964 80.1891 232.7 81.8512C231.955 86.5347 235.687 93.9569 225.718 94.3574C222.178 94.5006 224.98 97.417 226.407 98.7383C228.998 101.14 235.061 101.519 234.351 105.017C233.675 108.352 227.764 103.503 224.768 106.9C223.521 108.314 221.196 108.461 219.706 107.244C213.859 102.474 210.328 107.426 206.594 110.384C195.487 119.185 195.946 124.05 208.84 130.263C211.756 131.668 214.444 133.781 217.565 134.541C225.696 136.522 232.623 139.552 234.666 148.854C235.027 150.492 237.05 153.461 239.495 151.167C240.84 149.903 240.849 147.797 239.81 146.273C236.625 141.597 237.227 138.494 242.69 136.103C245.128 135.037 244.387 132.23 243.366 130.281C241.552 126.819 242.248 123.167 242.081 119.573C241.657 110.356 246.833 106.983 255.133 111.362C258.288 113.028 261.919 114.982 263.686 117.826C266.651 122.598 268.982 125.072 274.721 121.514C278.451 119.201 281.104 122.752 282.31 125.641C284.947 131.961 289.77 136.032 294.678 140.395C298.415 143.717 304.33 146.701 300.81 153.811C299.671 156.108 302.242 156.615 303.65 157.565C306.097 159.216 308.386 161.045 308.93 164.195C309.18 165.643 308.243 168.197 308.065 168.059C304.06 164.958 299.276 167.911 295.336 166.33C292.679 165.264 292.53 162.448 293.525 159.7C295.053 155.479 292.84 155.587 289.694 156.367C287.602 156.885 285.297 157.217 283.196 156.9C275.623 155.76 276.049 158.333 278.351 164.373C280.394 169.732 282.485 169.313 286.295 167.162C288.077 166.156 289.953 166.383 290.787 168.472C291.579 170.457 290.343 172.779 288.829 173.024C283.151 173.944 278.514 180.787 271.768 175.976C269.738 174.53 266.327 175.628 265.979 177.243C264.601 183.652 259.2 185.34 254.745 188.281C253.904 188.836 253.29 189.972 252.922 190.969C249.643 199.811 244.958 207.378 237.189 213.321C233.242 216.341 232.986 221.591 237.037 225.932C239.025 228.062 239.587 231.002 236.908 232.535C234.255 234.052 233.881 230.244 232.288 229.066C230.59 227.81 229.154 225.987 228.078 224.136C224.904 218.684 220.03 218.097 214.839 219.761C211.662 220.779 208.593 221.55 205.282 221.551C198.764 221.555 192.946 221.232 194.458 231.433C195.021 235.238 189.58 239.512 194.557 244.369C198.182 247.905 201.458 249.584 206.03 246.729C207.573 245.766 209.016 244.637 210.576 243.704C212.849 242.343 215.677 241.299 217.844 242.642C221.17 244.704 217.913 247.298 217.034 249.087C214.207 254.853 214.763 257.84 222 257.78C225.861 257.749 228.016 260.33 228.105 264.125C228.188 267.681 226.68 272.153 231.228 273.527C235.971 274.959 241.992 275.444 245.693 272.486C253.661 266.119 261.511 267.468 270.077 270.152C272.381 270.873 274.773 271.214 277.182 271.372C291.077 272.289 298.724 285.411 311.48 288.511C315.83 303.565 331.376 301.238 341.384 307.489C343.978 309.11 347.309 309.942 350.115 311.673C355.525 315.015 357.017 319.305 352.912 324.342C348.807 329.377 347.744 335.279 345.997 341.244C343.124 351.047 341.355 362.372 327.261 363.264C323.462 363.505 321.489 367.079 320.365 370.894C315.855 386.206 314.226 387.821 297.683 394.212C296.4 394.709 296.028 395.216 296.449 396.394C299.048 403.67 294.065 405.651 288.793 406.144C283.865 406.606 283.613 410.704 281.657 413.372C278.141 418.17 277.322 424.704 272.08 428.514C271.754 428.751 272.12 430.859 272.745 431.339C276.134 433.94 274.632 435.617 272.477 438.325C265.328 447.315 265.457 447.808 271.877 457.16C272.903 458.654 274.886 459.767 271.665 460.85C262.957 463.779 254.783 459.73 251.484 451.061C248.911 444.3 248.758 436.913 250.556 430.593C254.31 417.394 253.763 403.679 256.953 390.295C259.394 380.049 261.364 368.65 261.527 357.496C261.631 350.516 258.847 345.142 253.319 341.874C247.2 338.257 243.77 333.174 241.465 326.841C240.852 325.159 239.752 323.659 238.978 322.027C236.935 317.723 228.819 316.3 233.477 308.678C235.997 304.557 234.889 298.559 239.531 295.152C242.52 292.959 242.672 289.769 242.844 286.377C243.029 282.754 242.155 281.261 238.17 280.873C230.961 280.173 223.405 279.396 221.629 269.978C221.243 267.932 218.792 267.707 217.17 267.379C208.796 265.677 202.192 260.118 192.513 259.764C184.344 259.467 173.335 255.322 169.19 244.442C167.359 239.637 165.311 236.144 157.736 237.677C151.541 238.932 147.521 231.14 145.419 225.494C142.14 216.694 137.465 209.937 129.895 203.878C121.711 197.329 119.464 186.57 119.67 176.114C119.812 168.969 120.354 162.207 112.669 158.319C111.032 157.49 110.361 156.158 110.135 154.02C109.234 145.537 108.538 145.062 99.5298 144.346C96.6316 144.116 96.7458 141.655 95.68 139.86C89.1279 128.837 80.8067 120.675 66.903 119.172C61.8642 118.627 58.7703 121.226 54.7484 122.004C50.4799 122.828 45.3995 120.838 48.2052 128.771C49.0336 131.117 45.3596 134.667 42.3545 133.696C36.8608 131.918 34.2436 134.861 31.4269 138.352C30.7563 139.184 29.9008 140.466 29.0906 140.496C19.1364 140.875 10.9076 147.476 1.07843 148.196L0.44043 146.306ZM207.372 64.9315C205.586 65.2324 203.803 65.584 202.565 67.0684C201.153 68.7613 201.684 70.5376 202.864 71.955C206.685 76.5424 209.525 82.2264 216.284 83.593C217.596 83.8576 215.943 87.8506 218.772 87.1528C220.153 86.8138 221.576 84.7657 222.077 83.2015C222.722 81.1842 220.886 79.7777 219.175 79.3554C213.311 77.909 211.241 73.7566 210.612 68.3263C210.397 66.4721 209.831 64.7467 207.372 64.9315Z" fill="#9CBBF5"/>
<path d="M816.468 334.695C816.372 329.348 816.573 324.77 810.831 323.383C810.132 323.215 808.854 322.834 808.874 322.671C810.146 311.613 800.4 313.396 794.744 310.4C793.493 309.737 792.442 308.609 791.457 307.549C789.698 305.651 787.651 303.32 789.683 300.881C792.063 298.021 795.867 298.974 797.141 301.546C799.808 306.929 803.114 305.331 807.688 304.926C817.818 304.029 825.944 309.454 831.465 317.447C833.609 320.552 839.632 324.03 837.765 326.089C834.791 329.37 830.965 324.356 827.586 322.653C824.867 321.282 822.498 321.964 820.704 324.045C818.701 326.368 820.032 328.67 821.168 331.086C826.7 342.857 834.838 352.851 842.608 363.102C849.84 372.643 850.246 377.912 844.446 388.309C843.375 390.228 842.276 392.137 841.365 394.136C834.363 409.5 822.758 411.394 810.855 400.121C805.223 394.787 798.439 390.609 791.918 386.302C787.851 383.616 783.682 384.905 779.577 387.189C772.901 390.904 765.907 393.543 758.091 394.317C749.549 395.162 749.449 395.646 748.247 387.002C747.214 379.569 742.77 373.082 743.8 364.889C744.621 358.348 747.084 355.1 753.132 353.382C758.131 351.963 762.816 351.053 765.238 344.263C766.581 340.499 773.666 336.721 779.56 336.999C782.993 337.16 784.916 336.629 786.634 333.707C789.33 329.123 793.964 329.634 798.354 329.964C801.211 330.178 803.607 331.483 802.903 334.722C801.317 342.025 806.015 344.462 811.382 344.169C817.547 343.83 815.885 337.863 816.468 334.695ZM484.884 24.5834C481.373 25.4498 476.594 21.7016 474.364 27.0865C472.075 32.6164 478.444 34.0592 479.992 37.8418C480.855 39.948 482.709 41.1352 484.422 42.4964C487.51 44.9505 490.784 45.3275 492.779 41.8112C495.853 36.3919 499.19 36.2976 503.68 39.7903C504.843 40.6947 506.469 40.499 507.7 39.4822C508.619 38.7227 509.123 37.3289 508.205 36.6438C498.539 29.43 507.187 30.6535 511.339 29.5243C513.021 29.0657 514.553 27.9293 516.046 26.9397C516.887 26.3832 518.06 25.5205 518.098 24.7502C518.154 23.5938 516.713 23.4307 515.706 23.3636C510.645 23.0301 505.894 20.5597 500.161 21.3825C494.98 20.2951 490.124 23.2893 484.884 24.5834ZM163.593 43.7706C161.898 41.8747 159.285 41.4252 158.242 43.979C154.179 53.9332 149.231 46.3896 146.146 44.0279C137.919 37.7331 134.377 37.3942 127.394 44.1548C124.367 47.0856 124.177 48.9235 128.708 49.8298C134.747 51.0369 140.424 52.7732 145.887 56.0212C152.504 59.9562 165.822 56.3239 171.122 50.214C172.03 49.2497 172.132 48.2873 171.118 47.3249C167.923 47.5895 165.656 46.0779 163.593 43.7706ZM731.418 296.083C731.027 296.362 730.958 297.491 731.136 298.115C732.537 303.049 734.023 307.999 739.912 309.421C745.003 310.652 748.73 309.271 751.967 304.676C756.021 298.92 754.178 292.087 756.498 286.049C757.355 283.82 754.497 282.638 750.738 282.613C744.893 286.662 738.121 291.324 731.418 296.083ZM575.393 332.605C570.856 335.793 564.567 338.287 562.236 343.137C559.552 348.725 558.584 355.486 558.972 362.027C559.108 364.324 560.318 366.158 562.807 366.6C565.819 367.137 569.397 366.939 570.258 363.851C572.645 355.296 577.271 347.448 578.449 339.07C577.436 336.225 578.384 330.503 575.393 332.605ZM597.993 75.9642C590.491 67.6339 590.5 65.8776 599.01 58.8143C604.03 54.6474 609.508 51.18 616.036 49.6394C618.824 48.9815 621.546 47.9194 624.16 46.734C624.856 46.4186 625.42 44.9523 625.374 44.0497C625.286 42.3405 623.866 41.4542 622.322 41.833C608.263 45.2713 594.194 48.7277 585.086 61.5584C581.445 66.6878 582.697 72.2649 588.269 75.0398C591.323 76.5605 594.634 76.0747 597.872 76.1128L597.993 75.9642ZM894.059 427.326C896.682 420.999 901.458 417.033 906.769 413.089C913.214 408.302 912.752 404.844 906.102 399.575C904.697 398.462 903.289 396.637 901.471 397.467C899.276 398.469 900.673 400.57 900.963 402.239C901.799 407.064 901.152 410.363 895.854 413.163C891.353 415.543 888.153 420.609 884.774 424.805C882.113 428.111 883.551 431.609 887.69 431.848C890.531 431.887 892.974 429.945 894.059 427.326ZM816.394 187.036C814.933 186.195 813.398 186.49 812.633 187.866C807.998 196.214 800.266 200.293 791.847 203.729C788.405 205.134 786.007 208.03 786.185 212.203C786.254 213.816 787.151 215.238 788.838 214.488C796.534 211.07 804.475 207.998 811.645 203.671C815.961 201.068 817.42 195.587 818.42 191.335C818.536 188.928 817.715 187.795 816.394 187.036ZM699.073 18.7073C693.856 15.3016 690.639 18.5442 688.689 22.577C686.659 26.7711 688.14 30.4722 693.059 31.8824C696.898 32.9825 700.798 33.8634 704.671 34.8422C706.921 33.0351 708.218 30.5647 709.431 28.0326C707.037 23.7461 703.015 21.2792 699.073 18.7073ZM806.017 49.5579C803.87 53.326 808.457 53.9006 810.081 55.8944C810.762 56.7317 811.529 57.5111 812.111 58.4119C813.744 60.9404 815.709 63.5902 818.966 62.5245C822.993 61.2068 818.014 58.2162 819.586 56.168C820.45 55.0407 821.181 53.8009 822.1 52.7225C824.273 50.1687 822.835 48.7712 820.445 48.1133C818.389 47.5478 816.18 47.5406 814.748 47.372C811.194 47.6765 807.592 46.7938 806.017 49.5579ZM765.093 270.396C768.618 273.441 771.821 271.02 773.604 268.867C775.533 266.538 773.405 263.833 770.583 263.273C765.475 262.26 765.167 259.763 766.94 255.487C767.692 253.673 765.542 252.116 763.822 251.65C761.524 251.026 760.701 253.102 760.128 254.775C759.668 256.119 759.721 257.642 759.545 259.085C759.188 263.957 761.611 267.388 765.093 270.396ZM756.511 305.535C756.777 308.769 757.237 313.398 760.75 314.203C762.646 314.638 767.494 312.927 767.175 308.664C766.943 305.543 766.208 302.09 761.839 301.631C759.237 301.758 756.273 302.644 756.511 305.535Z" fill="#9CBBF5"/>
</g>
<rect x="492.189" y="368.914" width="15.8945" height="15.8945" fill="#D9D9D9"/>
<path d="M492 368.918L502.029 364.373L516.409 364.373L508.036 368.918L492 368.918Z" fill="#D2D2D2"/>
<path d="M492 384.752L502.029 380.207L516.409 380.207L508.036 384.752L492 384.752Z" fill="#D9D9D9"/>
<path d="M508.084 368.914L516.536 364.31V380.267L508.084 384.809V368.914Z" fill="#B5B5B5"/>
<rect x="504.993" y="369.605" width="1.00918" height="14.3807" fill="#CBCBCB"/>
<rect x="506.759" y="369.605" width="1.00918" height="14.3807" fill="#CBCBCB"/>
<rect x="503.227" y="369.605" width="1.00918" height="14.3807" fill="#CBCBCB"/>
<rect x="501.461" y="369.605" width="1.00918" height="14.3807" fill="#CBCBCB"/>
<rect x="494.397" y="369.605" width="1.00918" height="14.3807" fill="#CBCBCB"/>
<rect x="496.163" y="369.605" width="1.00918" height="14.3807" fill="#CBCBCB"/>
<rect x="497.929" y="369.605" width="1.00918" height="14.3807" fill="#CBCBCB"/>
<rect x="499.695" y="369.605" width="1.00918" height="14.3807" fill="#CBCBCB"/>
<rect x="492.631" y="369.605" width="1.00918" height="14.3807" fill="#CBCBCB"/>
<circle cx="399" cy="310" r="5" fill="#9CBBF5"/>
<circle cx="326" cy="299" r="5" fill="#9CBBF5"/>
<circle cx="740" cy="327" r="5" fill="#9CBBF5"/>
<circle cx="764" cy="220" r="5" fill="#9CBBF5"/>
<circle cx="814" cy="201" r="5" fill="#9CBBF5"/>
<circle cx="497" cy="394" r="5" fill="#9CBBF5"/>
<circle cx="814" cy="341" r="5" fill="#9CBBF5"/>
<circle cx="577" cy="343" r="5" fill="#9CBBF5"/>
<circle cx="601" cy="241" r="5" fill="#9CBBF5"/>
<circle cx="638" cy="267" r="5" fill="#9CBBF5"/>
<circle cx="527" cy="382" r="5" fill="#9CBBF5"/>
<circle cx="412" cy="224" r="5" fill="#9CBBF5"/>
<circle cx="462" cy="124" r="5" fill="#9CBBF5"/>
<circle cx="422" cy="180" r="5" fill="#9CBBF5"/>
<circle cx="309" cy="159" r="5" fill="#9CBBF5"/>
<circle cx="261" cy="185" r="5" fill="#9CBBF5"/>
<circle cx="201" cy="224" r="5" fill="#9CBBF5"/>
<circle cx="228" cy="272" r="5" fill="#9CBBF5"/>
<circle cx="470" cy="293" r="5" fill="#9CBBF5"/>
<path d="M571.12 280.1V284.45C571.12 284.67 571.12 284.87 571.1 285.07C571 286.22 570.22 287.14 568.53 287.14C566.84 287.14 566.06 286.22 565.96 285.07C565.94 284.87 565.94 284.67 565.94 284.45V280.1H566.8V284.37C566.8 284.59 566.8 284.8 566.82 284.98C566.9 285.85 567.47 286.46 568.53 286.46C569.59 286.46 570.16 285.85 570.24 284.98C570.26 284.8 570.26 284.59 570.26 284.37V280.1H571.12ZM572.826 285.86C573.196 285.86 573.466 286.13 573.466 286.5C573.466 286.87 573.196 287.14 572.826 287.14C572.456 287.14 572.186 286.87 572.186 286.5C572.186 286.13 572.456 285.86 572.826 285.86ZM578.574 284.56H576.034L575.224 287H574.304L576.784 280.1H577.944L580.324 287H579.394L578.574 284.56ZM576.274 283.86H578.344L577.344 280.78L576.274 283.86ZM581.41 285.86C581.78 285.86 582.05 286.13 582.05 286.5C582.05 286.87 581.78 287.14 581.41 287.14C581.04 287.14 580.77 286.87 580.77 286.5C580.77 286.13 581.04 285.86 581.41 285.86ZM588.188 286.3V287H583.598V280.1H588.088V280.8H584.458V283.2H587.788V283.9H584.458V286.3H588.188Z" fill="white"/>
<g opacity="0.35">
<path d="M601.5 241C608.833 254 577 342.5 577 342.5L569.5 379L528 381.5L517.5 397.5L496 395.5L398 311.5L401.5 237.5L411 223L420 180.5C420 180.5 459.184 132.135 463 125L309.5 158.5" stroke="white" stroke-dasharray="6 6"/>
<path d="M774 226L791.5 290L757 324L738 329.5L653.5 287L637.5 267L602 241" stroke="#E0E1E9" stroke-dasharray="10 10"/>
<path d="M309.5 159L324 188L261 184.5L240 236L201 224.5C201 224.5 216.104 236.579 224.5 245.5C231.725 253.176 229.5 271.5 229.5 271.5L217 276L131 310.5" stroke="#E0E1E9" stroke-linecap="round" stroke-dasharray="6 6"/>
<path d="M324.5 298L316 281.5L324.5 188.5" stroke="#E0E1E9" stroke-linecap="round" stroke-dasharray="6 6"/>
<path d="M865 253.5L767 221" stroke="#E0E1E9" stroke-linecap="round" stroke-dasharray="6 6"/>
<path d="M873 247L816 202" stroke="#E0E1E9" stroke-linecap="round" stroke-dasharray="6 6"/>
<path d="M783 299L803.5 328.5L811 341L813.5 342" stroke="#E0E1E9" stroke-linecap="round" stroke-dasharray="6 6"/>
<path d="M400 309.5L468 294.5L465.5 369.5" stroke="#E0E1E9" stroke-linecap="round" stroke-dasharray="6 6"/>
</g>
<rect x="583.104" y="298.989" width="8.72246" height="8.72246" fill="#9CBBF5"/>
<path d="M583 298.992L588.503 296.497L596.395 296.497L591.8 298.992L583 298.992Z" fill="#7D9FE1"/>
<path d="M583 307.681L588.503 305.186L596.395 305.186L591.8 307.681L583 307.681Z" fill="#9CBBF5"/>
<path d="M591.826 298.989L596.464 296.463V305.22L591.826 307.712V298.989Z" fill="#9CBBF5"/>
<rect x="590.13" y="299.369" width="0.553807" height="7.89175" fill="#91ABDD"/>
<rect x="591.1" y="299.369" width="0.553807" height="7.89175" fill="#91ABDD"/>
<rect x="589.161" y="299.369" width="0.553807" height="7.89175" fill="#91ABDD"/>
<rect x="588.192" y="299.369" width="0.553807" height="7.89175" fill="#91ABDD"/>
<rect x="584.315" y="299.369" width="0.553807" height="7.89175" fill="#91ABDD"/>
<rect x="585.284" y="299.369" width="0.553807" height="7.89175" fill="#91ABDD"/>
<rect x="586.254" y="299.369" width="0.553807" height="7.89175" fill="#91ABDD"/>
<rect x="587.223" y="299.369" width="0.553807" height="7.89175" fill="#91ABDD"/>
<rect x="583.346" y="299.369" width="0.553807" height="7.89175" fill="#91ABDD"/>
<rect x="421.104" y="334.989" width="8.72246" height="8.72246" fill="#9CBBF5"/>
<path d="M421 334.992L426.503 332.497L434.395 332.497L429.8 334.992L421 334.992Z" fill="#7D9FE1"/>
<path d="M421 343.681L426.503 341.186L434.395 341.186L429.8 343.681L421 343.681Z" fill="#9CBBF5"/>
<path d="M429.826 334.989L434.464 332.463V341.22L429.826 343.712V334.989Z" fill="#9CBBF5"/>
<rect x="428.13" y="335.369" width="0.553807" height="7.89175" fill="#91ABDD"/>
<rect x="429.1" y="335.369" width="0.553807" height="7.89175" fill="#91ABDD"/>
<rect x="427.161" y="335.369" width="0.553807" height="7.89175" fill="#91ABDD"/>
<rect x="426.192" y="335.369" width="0.553807" height="7.89175" fill="#91ABDD"/>
<rect x="422.315" y="335.369" width="0.553807" height="7.89175" fill="#91ABDD"/>
<rect x="423.284" y="335.369" width="0.553807" height="7.89175" fill="#91ABDD"/>
<rect x="424.254" y="335.369" width="0.553807" height="7.89175" fill="#91ABDD"/>
<rect x="425.223" y="335.369" width="0.553807" height="7.89175" fill="#91ABDD"/>
<rect x="421.346" y="335.369" width="0.553807" height="7.89175" fill="#91ABDD"/>
<rect x="785.104" y="283.989" width="8.72246" height="8.72246" fill="#9CBBF5"/>
<path d="M785 283.992L790.503 281.497L798.395 281.497L793.8 283.992L785 283.992Z" fill="#7D9FE1"/>
<path d="M785 292.681L790.503 290.186L798.395 290.186L793.8 292.681L785 292.681Z" fill="#9CBBF5"/>
<path d="M793.826 283.989L798.464 281.463V290.22L793.826 292.712V283.989Z" fill="#9CBBF5"/>
<rect x="792.13" y="284.369" width="0.553807" height="7.89175" fill="#91ABDD"/>
<rect x="793.1" y="284.369" width="0.553807" height="7.89175" fill="#91ABDD"/>
<rect x="791.161" y="284.369" width="0.553807" height="7.89175" fill="#91ABDD"/>
<rect x="790.192" y="284.369" width="0.553807" height="7.89175" fill="#91ABDD"/>
<rect x="786.315" y="284.369" width="0.553807" height="7.89175" fill="#91ABDD"/>
<rect x="787.284" y="284.369" width="0.553807" height="7.89175" fill="#91ABDD"/>
<rect x="788.254" y="284.369" width="0.553807" height="7.89175" fill="#91ABDD"/>
<rect x="789.223" y="284.369" width="0.553807" height="7.89175" fill="#91ABDD"/>
<rect x="785.346" y="284.369" width="0.553807" height="7.89175" fill="#91ABDD"/>
<rect x="856.104" y="251.989" width="8.72246" height="8.72246" fill="#9CBBF5"/>
<path d="M856 251.992L861.503 249.497L869.395 249.497L864.8 251.992L856 251.992Z" fill="#7D9FE1"/>
<path d="M856 260.681L861.503 258.186L869.395 258.186L864.8 260.681L856 260.681Z" fill="#9CBBF5"/>
<path d="M864.826 251.989L869.464 249.463V258.22L864.826 260.712V251.989Z" fill="#9CBBF5"/>
<rect x="863.13" y="252.369" width="0.553807" height="7.89175" fill="#91ABDD"/>
<rect x="864.1" y="252.369" width="0.553807" height="7.89175" fill="#91ABDD"/>
<rect x="862.161" y="252.369" width="0.553807" height="7.89175" fill="#91ABDD"/>
<rect x="861.192" y="252.369" width="0.553807" height="7.89175" fill="#91ABDD"/>
<rect x="857.315" y="252.369" width="0.553807" height="7.89175" fill="#91ABDD"/>
<rect x="858.284" y="252.369" width="0.553807" height="7.89175" fill="#91ABDD"/>
<rect x="859.254" y="252.369" width="0.553807" height="7.89175" fill="#91ABDD"/>
<rect x="860.223" y="252.369" width="0.553807" height="7.89175" fill="#91ABDD"/>
<rect x="856.346" y="252.369" width="0.553807" height="7.89175" fill="#91ABDD"/>
<rect x="160.104" y="291.989" width="8.72246" height="8.72246" fill="#9CBBF5"/>
<path d="M160 291.992L165.503 289.497L173.395 289.497L168.8 291.992L160 291.992Z" fill="#7D9FE1"/>
<path d="M160 300.681L165.503 298.186L173.395 298.186L168.8 300.681L160 300.681Z" fill="#9CBBF5"/>
<path d="M168.826 291.989L173.464 289.463V298.22L168.826 300.712V291.989Z" fill="#9CBBF5"/>
<rect x="167.13" y="292.369" width="0.553807" height="7.89175" fill="#91ABDD"/>
<rect x="168.1" y="292.369" width="0.553807" height="7.89175" fill="#91ABDD"/>
<rect x="166.161" y="292.369" width="0.553807" height="7.89175" fill="#91ABDD"/>
<rect x="165.192" y="292.369" width="0.553807" height="7.89175" fill="#91ABDD"/>
<rect x="161.315" y="292.369" width="0.553807" height="7.89175" fill="#91ABDD"/>
<rect x="162.284" y="292.369" width="0.553807" height="7.89175" fill="#91ABDD"/>
<rect x="163.254" y="292.369" width="0.553807" height="7.89175" fill="#91ABDD"/>
<rect x="164.223" y="292.369" width="0.553807" height="7.89175" fill="#91ABDD"/>
<rect x="160.346" y="292.369" width="0.553807" height="7.89175" fill="#91ABDD"/>
<rect x="304.104" y="183.989" width="8.72246" height="8.72246" fill="#9CBBF5"/>
<path d="M304 183.992L309.503 181.497L317.395 181.497L312.8 183.992L304 183.992Z" fill="#7D9FE1"/>
<path d="M304 192.681L309.503 190.186L317.395 190.186L312.8 192.681L304 192.681Z" fill="#9CBBF5"/>
<path d="M312.826 183.989L317.464 181.463V190.22L312.826 192.712V183.989Z" fill="#9CBBF5"/>
<rect x="311.13" y="184.369" width="0.553807" height="7.89175" fill="#91ABDD"/>
<rect x="312.1" y="184.369" width="0.553807" height="7.89175" fill="#91ABDD"/>
<rect x="310.161" y="184.369" width="0.553807" height="7.89175" fill="#91ABDD"/>
<rect x="309.192" y="184.369" width="0.553807" height="7.89175" fill="#91ABDD"/>
<rect x="305.315" y="184.369" width="0.553807" height="7.89175" fill="#91ABDD"/>
<rect x="306.284" y="184.369" width="0.553807" height="7.89175" fill="#91ABDD"/>
<rect x="307.254" y="184.369" width="0.553807" height="7.89175" fill="#91ABDD"/>
<rect x="308.223" y="184.369" width="0.553807" height="7.89175" fill="#91ABDD"/>
<rect x="304.346" y="184.369" width="0.553807" height="7.89175" fill="#91ABDD"/>
<rect x="469.27" y="109.596" width="13.9752" height="13.9752" fill="#F5DFCD"/>
<path d="M469.103 109.6L477.921 105.603L490.565 105.603L483.203 109.6L469.103 109.6Z" fill="#F0D0B7"/>
<path d="M469.103 123.522L477.921 119.525L490.565 119.525L483.203 123.522L469.103 123.522Z" fill="#F5DFCD"/>
<path d="M483.245 109.596L490.676 105.548V119.578L483.245 123.571V109.596Z" fill="#D0996E"/>
<rect x="480.568" y="109.924" width="0.944328" height="13.4567" fill="#F1B98E"/>
<rect x="482.221" y="109.924" width="0.944328" height="13.4567" fill="#F1B98E"/>
<rect x="478.916" y="109.924" width="0.944328" height="13.4567" fill="#F1B98E"/>
<rect x="477.263" y="109.924" width="0.944328" height="13.4567" fill="#F1B98E"/>
<rect x="470.653" y="109.924" width="0.944328" height="13.4567" fill="#F1B98E"/>
<rect x="472.305" y="109.924" width="0.944328" height="13.4567" fill="#F1B98E"/>
<rect x="473.958" y="109.924" width="0.944328" height="13.4567" fill="#F1B98E"/>
<rect x="475.61" y="109.924" width="0.944328" height="13.4567" fill="#F1B98E"/>
<rect x="469" y="109.924" width="0.944328" height="13.4567" fill="#F1B98E"/>
<rect x="734.189" y="206.914" width="15.8945" height="15.8945" fill="#F5DFCD"/>
<path d="M734 206.918L744.029 202.373L758.409 202.373L750.036 206.918L734 206.918Z" fill="#F0D0B7"/>
<path d="M734 222.752L744.029 218.207L758.409 218.207L750.036 222.752L734 222.752Z" fill="#F5DFCD"/>
<path d="M750.084 206.914L758.536 202.31V218.267L750.084 222.809V206.914Z" fill="#D0996E"/>
<rect x="746.993" y="207.605" width="1.00918" height="14.3807" fill="#F1B98E"/>
<rect x="748.759" y="207.605" width="1.00918" height="14.3807" fill="#F1B98E"/>
<rect x="745.227" y="207.605" width="1.00918" height="14.3807" fill="#F1B98E"/>
<rect x="743.461" y="207.605" width="1.00918" height="14.3807" fill="#F1B98E"/>
<rect x="736.397" y="207.605" width="1.00918" height="14.3807" fill="#F1B98E"/>
<rect x="738.163" y="207.605" width="1.00918" height="14.3807" fill="#F1B98E"/>
<rect x="739.929" y="207.605" width="1.00918" height="14.3807" fill="#F1B98E"/>
<rect x="741.695" y="207.605" width="1.00918" height="14.3807" fill="#F1B98E"/>
<rect x="734.631" y="207.605" width="1.00918" height="14.3807" fill="#F1B98E"/>
<rect x="208.119" y="254.879" width="10.0181" height="10.0181" fill="#F5DFCD"/>
<path d="M208 254.882L214.321 252.017L223.385 252.017L218.108 254.882L208 254.882Z" fill="#F0D0B7"/>
<path d="M208 264.861L214.321 261.996L223.385 261.996L218.108 264.861L208 264.861Z" fill="#F5DFCD"/>
<path d="M218.137 254.879L223.464 251.977V262.035L218.137 264.897V254.879Z" fill="#D0996E"/>
<rect x="216.189" y="255.315" width="0.636069" height="9.06399" fill="#F1B98E"/>
<rect x="217.303" y="255.315" width="0.636069" height="9.06399" fill="#F1B98E"/>
<rect x="215.076" y="255.315" width="0.636069" height="9.06399" fill="#F1B98E"/>
<rect x="213.963" y="255.315" width="0.636069" height="9.06399" fill="#F1B98E"/>
<rect x="209.511" y="255.315" width="0.636069" height="9.06399" fill="#F1B98E"/>
<rect x="210.624" y="255.315" width="0.636069" height="9.06399" fill="#F1B98E"/>
<rect x="211.737" y="255.315" width="0.636069" height="9.06399" fill="#F1B98E"/>
<rect x="212.85" y="255.315" width="0.636069" height="9.06399" fill="#F1B98E"/>
<rect x="208.397" y="255.315" width="0.636069" height="9.06399" fill="#F1B98E"/>
<path d="M598.344 309.648C599.784 309.648 600.448 310.68 600.448 311.88C600.448 313.072 599.784 314.112 598.344 314.112C596.904 314.112 596.24 313.072 596.24 311.88C596.24 310.68 596.904 309.648 598.344 309.648ZM598.344 313.584C599.2 313.584 599.696 312.872 599.696 311.88C599.696 310.88 599.2 310.176 598.344 310.176C597.488 310.176 596.992 310.88 596.992 311.88C596.992 312.872 597.488 313.584 598.344 313.584ZM604.848 310.888C604.864 311.104 604.864 311.272 604.864 311.616V314H604.176V311.664C604.176 311.448 604.176 311.272 604.16 311.056C604.12 310.56 603.848 310.192 603.192 310.192C602.528 310.192 601.968 310.688 601.968 312.136V314H601.28V309.76H601.968V310.488L602.232 310C602.592 309.72 602.904 309.648 603.336 309.648C604.264 309.648 604.784 310.144 604.848 310.888ZM609.412 309.664C609.524 309.664 609.62 309.68 609.7 309.72V310.24C608.98 310.192 608.436 310.616 608.436 311.584V314H607.748V309.76H608.436V310.424L608.82 309.856C608.996 309.736 609.212 309.664 609.412 309.664ZM612.047 309.648C613.487 309.648 614.151 310.68 614.151 311.88C614.151 313.072 613.487 314.112 612.047 314.112C610.607 314.112 609.943 313.072 609.943 311.88C609.943 310.68 610.607 309.648 612.047 309.648ZM612.047 313.584C612.903 313.584 613.399 312.872 613.399 311.88C613.399 310.88 612.903 310.176 612.047 310.176C611.191 310.176 610.695 310.88 610.695 311.88C610.695 312.872 611.191 313.584 612.047 313.584ZM618.503 309.76V314H617.815V313.28L617.551 313.776C617.191 314.04 616.879 314.112 616.447 314.112C615.567 314.112 615.055 313.616 614.959 313.032C614.927 312.816 614.919 312.648 614.919 312.304V309.76H615.607V312.176C615.607 312.312 615.615 312.544 615.639 312.76C615.703 313.24 616.047 313.568 616.623 313.568C617.287 313.568 617.815 313.072 617.815 311.624V309.76H618.503ZM620.541 310.32V312.76C620.541 312.904 620.541 312.976 620.549 313.088C620.581 313.496 620.749 313.584 621.285 313.52V314.024C621.085 314.056 620.893 314.064 620.701 314.064C620.173 314.064 619.901 313.848 619.861 313.32C619.853 313.208 619.853 313.032 619.853 312.792V310.32H619.285V309.792H619.853V308.808H620.541V309.792H621.333V310.32H620.541ZM625.603 311.76C625.603 311.824 625.603 311.936 625.587 312.088H622.515C622.579 313.208 623.107 313.584 623.731 313.584C624.283 313.584 624.731 313.24 624.827 312.632H625.547C625.379 313.656 624.571 314.112 623.699 314.112C622.595 314.112 621.771 313.392 621.771 311.896C621.771 310.52 622.627 309.648 623.787 309.648C624.955 309.648 625.603 310.52 625.603 311.76ZM623.771 310.176C623.099 310.176 622.603 310.656 622.523 311.56H624.907C624.843 310.68 624.467 310.176 623.771 310.176Z" fill="white"/>
<path d="M805.344 288.648C806.784 288.648 807.448 289.68 807.448 290.88C807.448 292.072 806.784 293.112 805.344 293.112C803.904 293.112 803.24 292.072 803.24 290.88C803.24 289.68 803.904 288.648 805.344 288.648ZM805.344 292.584C806.2 292.584 806.696 291.872 806.696 290.88C806.696 289.88 806.2 289.176 805.344 289.176C804.488 289.176 803.992 289.88 803.992 290.88C803.992 291.872 804.488 292.584 805.344 292.584ZM811.848 289.888C811.864 290.104 811.864 290.272 811.864 290.616V293H811.176V290.664C811.176 290.448 811.176 290.272 811.16 290.056C811.12 289.56 810.848 289.192 810.192 289.192C809.528 289.192 808.968 289.688 808.968 291.136V293H808.28V288.76H808.968V289.488L809.232 289C809.592 288.72 809.904 288.648 810.336 288.648C811.264 288.648 811.784 289.144 811.848 289.888ZM816.412 288.664C816.524 288.664 816.62 288.68 816.7 288.72V289.24C815.98 289.192 815.436 289.616 815.436 290.584V293H814.748V288.76H815.436V289.424L815.82 288.856C815.996 288.736 816.212 288.664 816.412 288.664ZM819.047 288.648C820.487 288.648 821.151 289.68 821.151 290.88C821.151 292.072 820.487 293.112 819.047 293.112C817.607 293.112 816.943 292.072 816.943 290.88C816.943 289.68 817.607 288.648 819.047 288.648ZM819.047 292.584C819.903 292.584 820.399 291.872 820.399 290.88C820.399 289.88 819.903 289.176 819.047 289.176C818.191 289.176 817.695 289.88 817.695 290.88C817.695 291.872 818.191 292.584 819.047 292.584ZM825.503 288.76V293H824.815V292.28L824.551 292.776C824.191 293.04 823.879 293.112 823.447 293.112C822.567 293.112 822.055 292.616 821.959 292.032C821.927 291.816 821.919 291.648 821.919 291.304V288.76H822.607V291.176C822.607 291.312 822.615 291.544 822.639 291.76C822.703 292.24 823.047 292.568 823.623 292.568C824.287 292.568 824.815 292.072 824.815 290.624V288.76H825.503ZM827.541 289.32V291.76C827.541 291.904 827.541 291.976 827.549 292.088C827.581 292.496 827.749 292.584 828.285 292.52V293.024C828.085 293.056 827.893 293.064 827.701 293.064C827.173 293.064 826.901 292.848 826.861 292.32C826.853 292.208 826.853 292.032 826.853 291.792V289.32H826.285V288.792H826.853V287.808H827.541V288.792H828.333V289.32H827.541ZM832.603 290.76C832.603 290.824 832.603 290.936 832.587 291.088H829.515C829.579 292.208 830.107 292.584 830.731 292.584C831.283 292.584 831.731 292.24 831.827 291.632H832.547C832.379 292.656 831.571 293.112 830.699 293.112C829.595 293.112 828.771 292.392 828.771 290.896C828.771 289.52 829.627 288.648 830.787 288.648C831.955 288.648 832.603 289.52 832.603 290.76ZM830.771 289.176C830.099 289.176 829.603 289.656 829.523 290.56H831.907C831.843 289.68 831.467 289.176 830.771 289.176Z" fill="white"/>
<path d="M844.344 264.648C845.784 264.648 846.448 265.68 846.448 266.88C846.448 268.072 845.784 269.112 844.344 269.112C842.904 269.112 842.24 268.072 842.24 266.88C842.24 265.68 842.904 264.648 844.344 264.648ZM844.344 268.584C845.2 268.584 845.696 267.872 845.696 266.88C845.696 265.88 845.2 265.176 844.344 265.176C843.488 265.176 842.992 265.88 842.992 266.88C842.992 267.872 843.488 268.584 844.344 268.584ZM850.848 265.888C850.864 266.104 850.864 266.272 850.864 266.616V269H850.176V266.664C850.176 266.448 850.176 266.272 850.16 266.056C850.12 265.56 849.848 265.192 849.192 265.192C848.528 265.192 847.968 265.688 847.968 267.136V269H847.28V264.76H847.968V265.488L848.232 265C848.592 264.72 848.904 264.648 849.336 264.648C850.264 264.648 850.784 265.144 850.848 265.888ZM855.412 264.664C855.524 264.664 855.62 264.68 855.7 264.72V265.24C854.98 265.192 854.436 265.616 854.436 266.584V269H853.748V264.76H854.436V265.424L854.82 264.856C854.996 264.736 855.212 264.664 855.412 264.664ZM858.047 264.648C859.487 264.648 860.151 265.68 860.151 266.88C860.151 268.072 859.487 269.112 858.047 269.112C856.607 269.112 855.943 268.072 855.943 266.88C855.943 265.68 856.607 264.648 858.047 264.648ZM858.047 268.584C858.903 268.584 859.399 267.872 859.399 266.88C859.399 265.88 858.903 265.176 858.047 265.176C857.191 265.176 856.695 265.88 856.695 266.88C856.695 267.872 857.191 268.584 858.047 268.584ZM864.503 264.76V269H863.815V268.28L863.551 268.776C863.191 269.04 862.879 269.112 862.447 269.112C861.567 269.112 861.055 268.616 860.959 268.032C860.927 267.816 860.919 267.648 860.919 267.304V264.76H861.607V267.176C861.607 267.312 861.615 267.544 861.639 267.76C861.703 268.24 862.047 268.568 862.623 268.568C863.287 268.568 863.815 268.072 863.815 266.624V264.76H864.503ZM866.541 265.32V267.76C866.541 267.904 866.541 267.976 866.549 268.088C866.581 268.496 866.749 268.584 867.285 268.52V269.024C867.085 269.056 866.893 269.064 866.701 269.064C866.173 269.064 865.901 268.848 865.861 268.32C865.853 268.208 865.853 268.032 865.853 267.792V265.32H865.285V264.792H865.853V263.808H866.541V264.792H867.333V265.32H866.541ZM871.603 266.76C871.603 266.824 871.603 266.936 871.587 267.088H868.515C868.579 268.208 869.107 268.584 869.731 268.584C870.283 268.584 870.731 268.24 870.827 267.632H871.547C871.379 268.656 870.571 269.112 869.699 269.112C868.595 269.112 867.771 268.392 867.771 266.896C867.771 265.52 868.627 264.648 869.787 264.648C870.955 264.648 871.603 265.52 871.603 266.76ZM869.771 265.176C869.099 265.176 868.603 265.656 868.523 266.56H870.907C870.843 265.68 870.467 265.176 869.771 265.176Z" fill="white"/>
<path d="M409.344 349.648C410.784 349.648 411.448 350.68 411.448 351.88C411.448 353.072 410.784 354.112 409.344 354.112C407.904 354.112 407.24 353.072 407.24 351.88C407.24 350.68 407.904 349.648 409.344 349.648ZM409.344 353.584C410.2 353.584 410.696 352.872 410.696 351.88C410.696 350.88 410.2 350.176 409.344 350.176C408.488 350.176 407.992 350.88 407.992 351.88C407.992 352.872 408.488 353.584 409.344 353.584ZM415.848 350.888C415.864 351.104 415.864 351.272 415.864 351.616V354H415.176V351.664C415.176 351.448 415.176 351.272 415.16 351.056C415.12 350.56 414.848 350.192 414.192 350.192C413.528 350.192 412.968 350.688 412.968 352.136V354H412.28V349.76H412.968V350.488L413.232 350C413.592 349.72 413.904 349.648 414.336 349.648C415.264 349.648 415.784 350.144 415.848 350.888ZM420.412 349.664C420.524 349.664 420.62 349.68 420.7 349.72V350.24C419.98 350.192 419.436 350.616 419.436 351.584V354H418.748V349.76H419.436V350.424L419.82 349.856C419.996 349.736 420.212 349.664 420.412 349.664ZM423.047 349.648C424.487 349.648 425.151 350.68 425.151 351.88C425.151 353.072 424.487 354.112 423.047 354.112C421.607 354.112 420.943 353.072 420.943 351.88C420.943 350.68 421.607 349.648 423.047 349.648ZM423.047 353.584C423.903 353.584 424.399 352.872 424.399 351.88C424.399 350.88 423.903 350.176 423.047 350.176C422.191 350.176 421.695 350.88 421.695 351.88C421.695 352.872 422.191 353.584 423.047 353.584ZM429.503 349.76V354H428.815V353.28L428.551 353.776C428.191 354.04 427.879 354.112 427.447 354.112C426.567 354.112 426.055 353.616 425.959 353.032C425.927 352.816 425.919 352.648 425.919 352.304V349.76H426.607V352.176C426.607 352.312 426.615 352.544 426.639 352.76C426.703 353.24 427.047 353.568 427.623 353.568C428.287 353.568 428.815 353.072 428.815 351.624V349.76H429.503ZM431.541 350.32V352.76C431.541 352.904 431.541 352.976 431.549 353.088C431.581 353.496 431.749 353.584 432.285 353.52V354.024C432.085 354.056 431.893 354.064 431.701 354.064C431.173 354.064 430.901 353.848 430.861 353.32C430.853 353.208 430.853 353.032 430.853 352.792V350.32H430.285V349.792H430.853V348.808H431.541V349.792H432.333V350.32H431.541ZM436.603 351.76C436.603 351.824 436.603 351.936 436.587 352.088H433.515C433.579 353.208 434.107 353.584 434.731 353.584C435.283 353.584 435.731 353.24 435.827 352.632H436.547C436.379 353.656 435.571 354.112 434.699 354.112C433.595 354.112 432.771 353.392 432.771 351.896C432.771 350.52 433.627 349.648 434.787 349.648C435.955 349.648 436.603 350.52 436.603 351.76ZM434.771 350.176C434.099 350.176 433.603 350.656 433.523 351.56H435.907C435.843 350.68 435.467 350.176 434.771 350.176Z" fill="white"/>
<path d="M289.344 197.648C290.784 197.648 291.448 198.68 291.448 199.88C291.448 201.072 290.784 202.112 289.344 202.112C287.904 202.112 287.24 201.072 287.24 199.88C287.24 198.68 287.904 197.648 289.344 197.648ZM289.344 201.584C290.2 201.584 290.696 200.872 290.696 199.88C290.696 198.88 290.2 198.176 289.344 198.176C288.488 198.176 287.992 198.88 287.992 199.88C287.992 200.872 288.488 201.584 289.344 201.584ZM295.848 198.888C295.864 199.104 295.864 199.272 295.864 199.616V202H295.176V199.664C295.176 199.448 295.176 199.272 295.16 199.056C295.12 198.56 294.848 198.192 294.192 198.192C293.528 198.192 292.968 198.688 292.968 200.136V202H292.28V197.76H292.968V198.488L293.232 198C293.592 197.72 293.904 197.648 294.336 197.648C295.264 197.648 295.784 198.144 295.848 198.888ZM300.412 197.664C300.524 197.664 300.62 197.68 300.7 197.72V198.24C299.98 198.192 299.436 198.616 299.436 199.584V202H298.748V197.76H299.436V198.424L299.82 197.856C299.996 197.736 300.212 197.664 300.412 197.664ZM303.047 197.648C304.487 197.648 305.151 198.68 305.151 199.88C305.151 201.072 304.487 202.112 303.047 202.112C301.607 202.112 300.943 201.072 300.943 199.88C300.943 198.68 301.607 197.648 303.047 197.648ZM303.047 201.584C303.903 201.584 304.399 200.872 304.399 199.88C304.399 198.88 303.903 198.176 303.047 198.176C302.191 198.176 301.695 198.88 301.695 199.88C301.695 200.872 302.191 201.584 303.047 201.584ZM309.503 197.76V202H308.815V201.28L308.551 201.776C308.191 202.04 307.879 202.112 307.447 202.112C306.567 202.112 306.055 201.616 305.959 201.032C305.927 200.816 305.919 200.648 305.919 200.304V197.76H306.607V200.176C306.607 200.312 306.615 200.544 306.639 200.76C306.703 201.24 307.047 201.568 307.623 201.568C308.287 201.568 308.815 201.072 308.815 199.624V197.76H309.503ZM311.541 198.32V200.76C311.541 200.904 311.541 200.976 311.549 201.088C311.581 201.496 311.749 201.584 312.285 201.52V202.024C312.085 202.056 311.893 202.064 311.701 202.064C311.173 202.064 310.901 201.848 310.861 201.32C310.853 201.208 310.853 201.032 310.853 200.792V198.32H310.285V197.792H310.853V196.808H311.541V197.792H312.333V198.32H311.541ZM316.603 199.76C316.603 199.824 316.603 199.936 316.587 200.088H313.515C313.579 201.208 314.107 201.584 314.731 201.584C315.283 201.584 315.731 201.24 315.827 200.632H316.547C316.379 201.656 315.571 202.112 314.699 202.112C313.595 202.112 312.771 201.392 312.771 199.896C312.771 198.52 313.627 197.648 314.787 197.648C315.955 197.648 316.603 198.52 316.603 199.76ZM314.771 198.176C314.099 198.176 313.603 198.656 313.523 199.56H315.907C315.843 198.68 315.467 198.176 314.771 198.176Z" fill="white"/>
<path d="M158.344 306.648C159.784 306.648 160.448 307.68 160.448 308.88C160.448 310.072 159.784 311.112 158.344 311.112C156.904 311.112 156.24 310.072 156.24 308.88C156.24 307.68 156.904 306.648 158.344 306.648ZM158.344 310.584C159.2 310.584 159.696 309.872 159.696 308.88C159.696 307.88 159.2 307.176 158.344 307.176C157.488 307.176 156.992 307.88 156.992 308.88C156.992 309.872 157.488 310.584 158.344 310.584ZM164.848 307.888C164.864 308.104 164.864 308.272 164.864 308.616V311H164.176V308.664C164.176 308.448 164.176 308.272 164.16 308.056C164.12 307.56 163.848 307.192 163.192 307.192C162.528 307.192 161.968 307.688 161.968 309.136V311H161.28V306.76H161.968V307.488L162.232 307C162.592 306.72 162.904 306.648 163.336 306.648C164.264 306.648 164.784 307.144 164.848 307.888ZM169.412 306.664C169.524 306.664 169.62 306.68 169.7 306.72V307.24C168.98 307.192 168.436 307.616 168.436 308.584V311H167.748V306.76H168.436V307.424L168.82 306.856C168.996 306.736 169.212 306.664 169.412 306.664ZM172.047 306.648C173.487 306.648 174.151 307.68 174.151 308.88C174.151 310.072 173.487 311.112 172.047 311.112C170.607 311.112 169.943 310.072 169.943 308.88C169.943 307.68 170.607 306.648 172.047 306.648ZM172.047 310.584C172.903 310.584 173.399 309.872 173.399 308.88C173.399 307.88 172.903 307.176 172.047 307.176C171.191 307.176 170.695 307.88 170.695 308.88C170.695 309.872 171.191 310.584 172.047 310.584ZM178.503 306.76V311H177.815V310.28L177.551 310.776C177.191 311.04 176.879 311.112 176.447 311.112C175.567 311.112 175.055 310.616 174.959 310.032C174.927 309.816 174.919 309.648 174.919 309.304V306.76H175.607V309.176C175.607 309.312 175.615 309.544 175.639 309.76C175.703 310.24 176.047 310.568 176.623 310.568C177.287 310.568 177.815 310.072 177.815 308.624V306.76H178.503ZM180.541 307.32V309.76C180.541 309.904 180.541 309.976 180.549 310.088C180.581 310.496 180.749 310.584 181.285 310.52V311.024C181.085 311.056 180.893 311.064 180.701 311.064C180.173 311.064 179.901 310.848 179.861 310.32C179.853 310.208 179.853 310.032 179.853 309.792V307.32H179.285V306.792H179.853V305.808H180.541V306.792H181.333V307.32H180.541ZM185.603 308.76C185.603 308.824 185.603 308.936 185.587 309.088H182.515C182.579 310.208 183.107 310.584 183.731 310.584C184.283 310.584 184.731 310.24 184.827 309.632H185.547C185.379 310.656 184.571 311.112 183.699 311.112C182.595 311.112 181.771 310.392 181.771 308.896C181.771 307.52 182.627 306.648 183.787 306.648C184.955 306.648 185.603 307.52 185.603 308.76ZM183.771 307.176C183.099 307.176 182.603 307.656 182.523 308.56H184.907C184.843 307.68 184.467 307.176 183.771 307.176Z" fill="white"/>
<defs>
<clipPath id="clip0_158_408">
<rect width="932" height="462" fill="white"/>
</clipPath>
</defs>
</svg>
