<svg width="196" height="147" viewBox="0 0 196 147" fill="none" xmlns="http://www.w3.org/2000/svg">
<path d="M115.842 108.645L154.331 89.3108L195.493 89.3108L159.722 108.727L115.842 108.645Z" fill="#D9D9D9"/>
<path d="M115.535 41.2981L159.561 41.2086L159.7 108.636L115.821 108.722L115.535 41.2981Z" fill="#696969"/>
<path d="M115 41.4714L157.417 21.9406L195.476 22.0376L159.437 41.3028L115 41.4714Z" fill="#555353"/>
<path d="M115 40.073L157.417 20.5421L195.476 20.6392L159.437 39.9044L115 40.073Z" fill="#636363"/>
<path d="M159.589 41.3015L195.475 21.8857L195.574 89.4639L159.607 108.728L159.589 41.3015Z" fill="#8E8E8E"/>
<ellipse cx="132.659" cy="37.4579" rx="2.67557" ry="1.07023" fill="#979797"/>
<ellipse cx="132.659" cy="36.923" rx="2.67557" ry="1.07023" fill="#CACACA"/>
<ellipse cx="132.659" cy="36.3879" rx="2.67557" ry="1.07023" fill="#B0B0B0"/>
<ellipse cx="156.204" cy="36.923" rx="2.67557" ry="1.07023" fill="#979797"/>
<ellipse cx="156.204" cy="36.3879" rx="2.67557" ry="1.07023" fill="#CACACA"/>
<ellipse cx="156.204" cy="35.8527" rx="2.67557" ry="1.07023" fill="#B0B0B0"/>
<ellipse cx="156.205" cy="35.8527" rx="1.07023" ry="0.535115" fill="#8D8D8D"/>
<path d="M159.415 39.866V41.2038" stroke="#636363" stroke-width="0.2"/>
<path d="M115.535 39.866V41.2038" stroke="#636363" stroke-width="0.2"/>
<g opacity="0.8">
<rect y="55.062" width="46.6978" height="62.8456" rx="3" transform="rotate(-7.02576 0 55.062)" fill="#E9E9E9"/>
<rect x="1.13379" y="57.1211" width="14.4021" height="9.16498" rx="3" transform="rotate(-7.02576 1.13379 57.1211)" fill="#3C4E70"/>
<rect x="2.36182" y="67.0835" width="14.4021" height="9.16498" rx="3" transform="rotate(-7.02576 2.36182 67.0835)" fill="#3C4E70"/>
<rect x="3.58887" y="77.0459" width="14.4021" height="9.16498" rx="3" transform="rotate(-7.02576 3.58887 77.0459)" fill="#3C4E70"/>
<rect x="4.81689" y="87.0085" width="14.4021" height="9.16498" rx="3" transform="rotate(-7.02576 4.81689 87.0085)" fill="#3C4E70"/>
<rect x="6.04443" y="96.9709" width="14.4021" height="9.16498" rx="3" transform="rotate(-7.02576 6.04443 96.9709)" fill="#3C4E70"/>
<rect x="7.27246" y="106.933" width="14.4021" height="9.16498" rx="3" transform="rotate(-7.02576 7.27246 106.933)" fill="#3C4E70"/>
<rect x="16.2939" y="55.2527" width="14.4021" height="9.16498" rx="3" transform="rotate(-7.02576 16.2939 55.2527)" fill="#3C4E70"/>
<rect x="31.4541" y="53.3843" width="14.4021" height="9.16498" rx="3" transform="rotate(-7.02576 31.4541 53.3843)" fill="#3C4E70"/>
<rect x="17.5215" y="65.2151" width="14.4021" height="9.16498" rx="3" transform="rotate(-7.02576 17.5215 65.2151)" fill="#3C4E70"/>
<rect x="32.6816" y="63.3469" width="14.4021" height="9.16498" rx="3" transform="rotate(-7.02576 32.6816 63.3469)" fill="#3C4E70"/>
<rect x="18.7495" y="75.1775" width="14.4021" height="9.16498" rx="3" transform="rotate(-7.02576 18.7495 75.1775)" fill="#3C4E70"/>
<rect x="33.9097" y="73.3093" width="14.4021" height="9.16498" rx="3" transform="rotate(-7.02576 33.9097 73.3093)" fill="#3C4E70"/>
<rect x="19.9771" y="85.1401" width="14.4021" height="9.16498" rx="3" transform="rotate(-7.02576 19.9771 85.1401)" fill="#3C4E70"/>
<rect x="21.2051" y="95.1025" width="14.4021" height="9.16498" rx="3" transform="rotate(-7.02576 21.2051 95.1025)" fill="#3C4E70"/>
<rect x="22.4326" y="105.065" width="14.4021" height="9.16498" rx="3" transform="rotate(-7.02576 22.4326 105.065)" fill="#3C4E70"/>
<rect x="35.1372" y="83.2717" width="14.4021" height="9.16498" rx="3" transform="rotate(-7.02576 35.1372 83.2717)" fill="#3C4E70"/>
<rect x="36.3652" y="93.2341" width="14.4021" height="9.16498" rx="3" transform="rotate(-7.02576 36.3652 93.2341)" fill="#3C4E70"/>
<rect x="37.5928" y="103.197" width="14.4021" height="9.16498" rx="3" transform="rotate(-7.02576 37.5928 103.197)" fill="#3C4E70"/>
<g filter="url(#filter0_d_176_2)">
<rect x="38.8389" y="45.7119" width="46.6978" height="62.8456" rx="3" transform="rotate(-7.02576 38.8389 45.7119)" fill="#E9E9E9"/>
<rect x="39.9722" y="47.771" width="14.4021" height="9.16498" rx="3" transform="rotate(-7.02576 39.9722 47.771)" fill="#3C4E70"/>
<rect x="41.2002" y="57.7334" width="14.4021" height="9.16498" rx="3" transform="rotate(-7.02576 41.2002 57.7334)" fill="#3C4E70"/>
<rect x="42.4277" y="67.696" width="14.4021" height="9.16498" rx="3" transform="rotate(-7.02576 42.4277 67.696)" fill="#3C4E70"/>
<rect x="43.6558" y="77.6584" width="14.4021" height="9.16498" rx="3" transform="rotate(-7.02576 43.6558 77.6584)" fill="#3C4E70"/>
<rect x="44.8833" y="87.6208" width="14.4021" height="9.16498" rx="3" transform="rotate(-7.02576 44.8833 87.6208)" fill="#3C4E70"/>
<rect x="46.1113" y="97.5833" width="14.4021" height="9.16498" rx="3" transform="rotate(-7.02576 46.1113 97.5833)" fill="#3C4E70"/>
<rect x="55.1328" y="45.9026" width="14.4021" height="9.16498" rx="3" transform="rotate(-7.02576 55.1328 45.9026)" fill="#3C4E70"/>
<rect x="70.293" y="44.0342" width="14.4021" height="9.16498" rx="3" transform="rotate(-7.02576 70.293 44.0342)" fill="#3C4E70"/>
<rect x="56.3599" y="55.865" width="14.4021" height="9.16498" rx="3" transform="rotate(-7.02576 56.3599 55.865)" fill="#3C4E70"/>
<rect x="71.5205" y="53.9968" width="14.4021" height="9.16498" rx="3" transform="rotate(-7.02576 71.5205 53.9968)" fill="#3C4E70"/>
<rect x="57.5884" y="65.8276" width="14.4021" height="9.16498" rx="3" transform="rotate(-7.02576 57.5884 65.8276)" fill="#3C4E70"/>
<rect x="72.7485" y="63.9592" width="14.4021" height="9.16498" rx="3" transform="rotate(-7.02576 72.7485 63.9592)" fill="#3C4E70"/>
<rect x="58.8159" y="75.79" width="14.4021" height="9.16498" rx="3" transform="rotate(-7.02576 58.8159 75.79)" fill="#3C4E70"/>
<rect x="60.0439" y="85.7524" width="14.4021" height="9.16498" rx="3" transform="rotate(-7.02576 60.0439 85.7524)" fill="#3C4E70"/>
<rect x="61.2715" y="95.7148" width="14.4021" height="9.16498" rx="3" transform="rotate(-7.02576 61.2715 95.7148)" fill="#3C4E70"/>
<rect x="73.9761" y="73.9216" width="14.4021" height="9.16498" rx="3" transform="rotate(-7.02576 73.9761 73.9216)" fill="#3C4E70"/>
<rect x="75.2041" y="83.884" width="14.4021" height="9.16498" rx="3" transform="rotate(-7.02576 75.2041 83.884)" fill="#3C4E70"/>
<rect x="76.4316" y="93.8467" width="14.4021" height="9.16498" rx="3" transform="rotate(-7.02576 76.4316 93.8467)" fill="#3C4E70"/>
</g>
</g>
<defs>
<filter id="filter0_d_176_2" x="32.1831" y="40.3442" width="63.3457" height="106.397" filterUnits="userSpaceOnUse" color-interpolation-filters="sRGB">
<feFlood flood-opacity="0" result="BackgroundImageFix"/>
<feColorMatrix in="SourceAlpha" type="matrix" values="0 0 0 0 0 0 0 0 0 0 0 0 0 0 0 0 0 0 127 0" result="hardAlpha"/>
<feOffset dx="-2" dy="34"/>
<feGaussianBlur stdDeviation="2.5"/>
<feComposite in2="hardAlpha" operator="out"/>
<feColorMatrix type="matrix" values="0 0 0 0 0 0 0 0 0 0 0 0 0 0 0 0 0 0 0.25 0"/>
<feBlend mode="normal" in2="BackgroundImageFix" result="effect1_dropShadow_176_2"/>
<feBlend mode="normal" in="SourceGraphic" in2="effect1_dropShadow_176_2" result="shape"/>
</filter>
</defs>
</svg>
